<?xml version="1.0" encoding="UTF-8"?>
<!DOCTYPE svg PUBLIC "-//W3C//DTD SVG 1.1//EN" "http://www.w3.org/Graphics/SVG/1.1/DTD/svg11.dtd">
<!-- Creator: CorelDRAW X7 -->
<svg xmlns="http://www.w3.org/2000/svg" xml:space="preserve" width="11.6929in" height="8.26772in" version="1.1" style="shape-rendering:geometricPrecision; text-rendering:geometricPrecision; image-rendering:optimizeQuality; fill-rule:evenodd; clip-rule:evenodd"
viewBox="0 0 11693 8268"
 xmlns:xlink="http://www.w3.org/1999/xlink">
 <defs>
  <style type="text/css">
   <![CDATA[
    .str0 {stroke:black;stroke-width:3}
    .str1 {stroke:#1A1A1A;stroke-width:3}
    .str3 {stroke:#999999;stroke-width:3}
    .str2 {stroke:#999999;stroke-width:6.49606}
    .fil5 {fill:black}
    .fil2 {fill:#090A0C}
    .fil4 {fill:#1A1A1A}
    .fil3 {fill:#1A1A1A}
    .fil6 {fill:#331D07}
    .fil0 {fill:#4D4D4D}
    .fil7 {fill:#4D4D4D}
    .fil8 {fill:#666666}
    .fil13 {fill:gray}
    .fil12 {fill:#999999}
    .fil14 {fill:#999999}
    .fil9 {fill:#FF6633}
    .fil11 {fill:yellow}
    .fil10 {fill:white}
    .fil1 {fill:gray;fill-rule:nonzero}
   ]]>
  </style>
   <clipPath id="id0">
    <rect x="8396" y="1107" width="717" height="717"/>
   </clipPath>
 </defs>
 <g id="Layer_x0020_1">
  <metadata id="CorelCorpID_0Corel-Layer"/>
  <path class="fil0" d="M10464 2189c6,-36 8,-68 28,-91l-7 -7c3,-29 -3,-40 17,-51 -1,-25 -3,-23 3,-45 9,-36 1,-12 14,-25l-10 114c-2,21 -4,37 -9,59 -2,11 0,8 -5,24 -10,31 -3,9 -11,21 2,78 -56,249 -83,320 -46,125 -61,200 -42,347 26,211 80,256 206,401 31,36 53,93 81,118 53,-5 543,-276 644,-334 261,-150 253,-39 -10,-519 -139,-253 -539,-988 -692,-1104 -127,-95 -272,-104 -441,-157 -148,-46 -295,-109 -428,-172 -472,-223 -281,-213 -683,-184l-579 -2c-85,-8 -199,-30 -278,-5 -64,20 -446,250 -831,369 -168,52 -303,57 -428,158 -132,107 -380,550 -475,724 -69,126 -144,256 -215,383 -44,77 -203,328 -198,400 119,78 280,156 416,231 68,37 369,211 427,212 37,-53 57,-92 96,-142 35,-44 67,-74 104,-126 69,-95 91,-242 87,-381 -4,-139 -63,-244 -97,-368 -32,-112 -43,-188 -62,-298 -3,-20 -13,-69 0,-88 12,27 46,215 55,257 76,332 197,406 242,692 30,189 17,405 17,604l0 1856c0,212 11,893 0,1088 -4,58 -21,75 -28,115 103,130 467,125 673,133 440,19 1156,18 1596,0 213,-9 552,-3 667,-129 -12,-102 -27,-1 -27,-269l0 -3233c1,-405 228,-590 266,-896z"/>
  <path class="fil0" d="M2293 1213c2,1 4,4 6,6 1,2 3,4 4,6 42,55 27,68 106,124 203,142 391,157 663,142 172,-9 296,-40 413,-122 100,-70 181,-192 200,-320 -11,167 -105,282 -203,347 -133,88 -228,124 -420,136 -168,10 -354,-1 -494,-62 -114,-50 -254,-151 -286,-269l11 12zm1299 -190c-4,41 1,16 -14,24l4 7c-6,20 3,3 -8,25 -7,14 -8,11 -16,20l-21 37c-24,48 -23,43 -58,77 -21,20 -38,42 -78,61 -16,21 -68,45 -97,49 -12,9 6,-1 -20,12 -11,6 -9,5 -21,9 -19,7 -31,10 -50,15l-11 -7c-9,7 -4,6 -20,12 -3,1 -12,4 -15,5 -18,4 -37,3 -55,5 -155,9 -370,15 -499,-50l-57 -26c-1,-3 -4,-3 -6,-5l2 2 -29 -13c-2,-4 -5,-4 -7,-6l3 0c-54,-27 -127,-98 -143,-155 -16,-2 -11,13 -12,-17l-7 -18 -10 -29c-16,-8 -11,15 -14,-25 -12,-131 13,-149 256,-119 128,16 247,16 383,16 135,0 253,1 383,-18 170,-25 250,-22 237,112zm-2473 2236c45,-128 229,-283 147,-478 -50,-120 -136,-162 -146,-339 -3,-49 11,-117 9,-143 12,67 10,116 32,178 17,47 51,107 90,112 22,-92 -87,-371 -57,-619l4 -46c24,16 51,205 61,246 18,81 42,163 72,237 65,161 136,250 170,449 36,209 20,962 20,1223l0 2175c0,264 -22,205 -26,292 140,121 443,114 669,124 475,20 1107,11 1586,-1 216,-6 549,-3 677,-125 -7,-90 -26,-8 -26,-280l0 -2794c0,-196 -13,-410 17,-598 42,-265 158,-351 241,-688 18,-70 31,-207 59,-263 20,27 13,141 11,173 -2,61 -7,115 -15,176 -11,77 -58,257 -43,321 101,-20 102,-228 124,-279 34,294 -67,305 -139,467 -80,180 87,343 128,452 25,27 35,63 64,96 29,-1 816,-406 835,-450 20,-46 -152,-316 -193,-388 -132,-236 -547,-1000 -679,-1106 -116,-93 -260,-111 -429,-160 -154,-44 -299,-108 -431,-169 -71,-32 -136,-62 -203,-96 -57,-30 -137,-79 -197,-103 -80,-32 -195,-8 -279,-1l-589 3c-86,-6 -209,-28 -287,-10 -58,14 -322,159 -402,197 -145,70 -274,124 -430,172 -404,124 -422,51 -689,497 -93,156 -649,1114 -643,1149 7,46 802,464 843,466 20,-23 23,-42 44,-69z"/>
  <g>
   <path class="fil1" d="M4087 2840l-2217 0 0 -47 2217 0 0 0 0 47zm80 35l-42 0 0 0 -1 -1 0 -2 0 -2 0 -1 -1 -2 0 -2 -1 -1 0 -2 -1 -1 -1 -2 0 -1 -1 -2 -1 -1 -1 -1 -2 -2 -1 -1 -1 -1 -2 -1 -1 -2 -1 -1 -2 -1 -2 -1 -1 0 -2 -1 -2 -1 -2 -1 -2 0 -1 -1 -2 0 -2 0 -2 0 -2 0 0 -47 4 0 4 0 4 1 3 0 4 1 4 1 4 2 3 1 4 2 3 1 4 2 3 2 3 3 3 2 3 3 3 2 2 3 3 3 2 3 3 3 2 4 2 3 2 4 1 3 2 4 1 4 1 4 1 4 1 5 1 4 0 4 0 4 0 0zm-42 1161l0 -1161 42 0 0 1161 0 0 -42 0zm-38 83l0 -47 0 0 2 0 2 0 2 -1 2 0 1 0 2 -1 2 0 2 -1 2 -1 1 -1 2 -1 2 -1 1 -1 1 -1 2 -1 1 -1 1 -2 2 -1 1 -1 1 -2 1 -1 0 -2 1 -1 1 -2 0 -1 1 -2 0 -1 1 -2 0 -2 0 -1 0 -2 1 -2 42 0 0 5 0 4 -1 4 -1 4 -1 4 -1 4 -1 4 -2 4 -1 4 -2 3 -2 4 -2 3 -3 3 -2 4 -3 3 -2 2 -3 3 -3 3 -3 2 -3 2 -3 2 -4 2 -3 2 -4 2 -3 1 -4 1 -4 1 -4 1 -3 1 -4 0 -4 1 -4 0 0 0zm-2217 -47l2217 0 0 47 -2217 0 0 0 0 -47zm-80 -36l42 0 0 0 0 2 0 2 1 1 0 2 0 2 1 1 0 2 1 1 1 2 0 1 1 2 1 1 1 2 1 1 1 1 2 2 1 1 1 1 2 1 1 1 2 1 1 1 2 1 2 1 2 1 1 0 2 1 2 0 2 0 2 1 2 0 2 0 0 47 -4 0 -4 -1 -4 0 -4 -1 -3 -1 -4 -1 -4 -1 -3 -1 -4 -2 -3 -2 -4 -2 -3 -2 -3 -2 -3 -2 -3 -3 -3 -3 -3 -2 -2 -3 -3 -4 -2 -3 -2 -3 -2 -4 -2 -3 -2 -4 -1 -4 -1 -4 -2 -4 -1 -4 0 -4 -1 -4 0 -4 0 -5 0 0zm42 -1161l0 1161 -42 0 0 -1161 0 0 42 0zm38 -82l0 47 0 0 -2 0 -2 0 -2 0 -2 0 -2 1 -2 0 -1 1 -2 1 -2 1 -2 0 -1 1 -2 1 -1 1 -2 2 -1 1 -1 1 -2 1 -1 2 -1 1 -1 1 -1 2 -1 1 0 2 -1 1 -1 2 0 1 -1 2 0 2 0 1 -1 2 0 2 0 1 -42 0 0 -4 0 -4 1 -4 0 -5 1 -4 2 -4 1 -4 1 -4 2 -3 2 -4 2 -3 2 -4 2 -3 3 -3 2 -3 3 -3 3 -2 3 -3 3 -2 3 -3 3 -2 4 -2 3 -1 4 -2 3 -1 4 -2 4 -1 3 -1 4 0 4 -1 4 0 4 0 0 0z"/>
  </g>
  <path class="fil2" d="M1194 1970l20 86c35,248 142,481 150,596 17,249 -44,377 -196,542l-45 58c-1,2 -3,5 -4,7 -21,27 -24,46 -44,69 -41,-2 -836,-420 -843,-466 -6,-35 550,-993 643,-1149 267,-446 285,-373 689,-497 156,-48 285,-102 430,-172 80,-38 344,-183 402,-197 78,-18 201,4 287,10l589 -3c84,-7 199,-31 279,1 60,24 140,73 197,103 67,34 132,64 203,96 132,61 277,125 431,169 169,49 313,67 429,160 132,106 547,870 679,1106 41,72 213,342 193,388 -19,44 -806,449 -835,450 -29,-33 -39,-69 -64,-96 -47,-42 -161,-194 -181,-244 -39,-100 -57,-256 -42,-373 13,-99 70,-219 97,-322 25,-92 67,-274 60,-371 -28,56 -41,193 -59,263 -83,337 -199,423 -241,688 -30,188 -17,402 -17,598l0 2794c0,272 19,190 26,280 -128,122 -461,119 -677,125 -479,12 -1111,21 -1586,1 -226,-10 -529,-3 -669,-124 4,-87 26,-28 26,-292l0 -2175c0,-261 16,-1014 -20,-1223 -34,-199 -105,-288 -170,-449 -30,-74 -54,-156 -72,-237 -10,-41 -37,-230 -61,-246l-4 46zm3284 923c132,274 214,282 284,384 94,137 31,143 417,-65 676,-364 621,-262 415,-627l-486 -851c-287,-508 -329,-429 -760,-566 -214,-68 -435,-172 -620,-268 -116,-60 -167,-112 -337,-100 -337,22 -511,23 -848,1 -185,-12 -214,31 -341,94 -204,101 -389,192 -619,269 -318,106 -375,38 -595,294 -88,102 -604,1021 -658,1118 -192,350 -221,296 135,488 78,41 531,298 583,306 81,12 77,-51 116,-101 35,-45 72,-73 107,-112 132,-145 125,-203 174,-262 57,63 34,525 34,645l0 2026c0,174 9,700 -1,848 -5,64 -40,96 -22,146 72,208 1290,164 1516,164 299,0 1040,3 1299,-58 81,-19 206,-55 200,-141 -3,-43 -28,-62 -28,-141l0 -2864c0,-124 -26,-559 35,-627z"/>
  <path class="fil2" d="M10484 2188l2 -43c-6,16 1,4 -8,22 -11,21 -6,12 -14,22 -38,306 -265,491 -266,896l0 3233c0,268 15,167 27,269 -115,126 -454,120 -667,129 -440,18 -1156,19 -1596,0 -206,-8 -570,-3 -673,-133 7,-40 24,-57 28,-115 11,-195 0,-876 0,-1088l0 -1856c0,-199 13,-415 -17,-604 -45,-286 -166,-360 -242,-692 -9,-42 -43,-230 -55,-257 -13,19 -3,68 0,88 19,110 30,186 62,298 34,124 93,229 97,368 4,139 -18,286 -87,381 -37,52 -69,82 -104,126 -39,50 -59,89 -96,142 -58,-1 -359,-175 -427,-212 -136,-75 -297,-153 -416,-231 -5,-72 154,-323 198,-400 71,-127 146,-257 215,-383 95,-174 343,-617 475,-724 125,-101 260,-106 428,-158 385,-119 767,-349 831,-369 79,-25 193,-3 278,5l579 2c402,-29 211,-39 683,184 133,63 280,126 428,172 169,53 314,62 441,157 153,116 553,851 692,1104 263,480 271,369 10,519 -101,58 -591,329 -644,334 -28,-25 -50,-82 -81,-118 -126,-145 -180,-190 -206,-401 -19,-147 -4,-222 42,-347 27,-71 85,-242 83,-320zm1 -97l7 7 -7 47c6,-10 11,-37 0,-54zm17 -51c0,2 0,24 0,26 5,29 -3,3 7,18l10 -114c-13,13 -5,-11 -14,25 -6,22 -4,20 -3,45zm-3262 899c59,89 35,493 35,635l0 2694c0,56 2,114 0,170 -2,107 -126,205 175,275 350,81 2235,79 2595,4 321,-67 201,-169 196,-250 -10,-163 -1,-660 -1,-848l0 -2025c0,-210 -24,-466 25,-651 51,32 48,119 184,259 150,154 144,227 225,213 44,-7 235,-121 292,-151 97,-50 195,-104 291,-157 357,-195 322,-127 130,-483 -84,-156 -547,-984 -657,-1120 -189,-234 -272,-189 -593,-293 -212,-68 -439,-176 -620,-271 -131,-68 -151,-104 -338,-94 -69,3 -127,16 -199,17 -226,4 -430,-3 -650,-17 -171,-11 -218,38 -335,98 -192,98 -399,197 -620,268 -317,103 -413,62 -593,295 -135,174 -524,882 -656,1120 -191,345 -222,292 128,479 76,40 545,302 582,309 90,17 85,-45 123,-96 33,-43 69,-73 106,-113 110,-119 103,-144 175,-267z"/>
  <path class="fil3 str0" d="M3582 1007c-2,2 -6,6 -8,7 -1,1 -6,9 -7,7 -1,-2 -5,3 -6,6 -40,-79 -190,-48 -280,-38 -146,17 -491,16 -639,1 -86,-9 -242,-43 -275,32 -12,-9 -20,-6 -29,-15 6,41 35,90 51,116l23 24c56,66 108,99 199,130 218,76 630,80 827,-65l52 -49c18,-16 -7,1 22,-17 23,-18 32,-42 42,-69l4 22c8,-9 9,-6 16,-20 11,-22 2,-5 8,-25 -1,0 -20,21 -21,23l21 -70zm-1225 79l7 18c1,30 -4,15 12,17l-12 -17c6,-21 13,-18 -7,-18zm-10 -29l-14 -25c3,40 -2,17 14,25zm1231 -10c15,-8 10,17 14,-24l-14 24z"/>
  <path class="fil4 str1" d="M1119 3259c1,-2 3,-5 4,-7l45 -58c152,-165 213,-293 196,-542 -8,-115 -115,-348 -150,-596l-20 -86c-30,248 79,527 57,619 -39,-5 -73,-65 -90,-112 -22,-62 -20,-111 -32,-178 2,26 -12,94 -9,143 10,177 96,219 146,339 82,195 -102,350 -147,478z"/>
  <path class="fil4 str1" d="M4784 3231c-41,-109 -208,-272 -128,-452 72,-162 173,-173 139,-467 -22,51 -23,259 -124,279 -15,-64 32,-244 43,-321 8,-61 13,-115 15,-176 2,-32 9,-146 -11,-173 7,97 -35,279 -60,371 -27,103 -84,223 -97,322 -15,117 3,273 42,373 20,50 134,202 181,244z"/>
  <path class="fil2 str0" d="M3582 1054l-4 -7 14 -24c13,-134 -67,-137 -237,-112 -130,19 -248,18 -383,18 -136,0 -255,0 -383,-16 -243,-30 -268,-12 -256,119l14 25 10 29c20,0 13,-3 7,18l12 17 15 18c10,13 5,6 14,17l22 25c2,2 3,4 5,6l28 31c23,23 9,-1 32,36l-52 -55c-21,-24 -34,-43 -51,-76 -16,-26 -45,-75 -51,-116 19,-115 161,-66 285,-56 157,14 539,16 694,-2 103,-12 260,-51 265,58l-21 70c1,-2 20,-23 21,-23zm-1063 222l-3 0c15,-14 35,1 -12,-21l15 21zm33 19l-2 -2c38,9 0,-4 41,12l-57 -32c2,2 5,3 6,7l12 15zm61 29c129,65 344,59 499,50l50 -19c-180,-1 -336,44 -559,-49l3 12c1,1 4,4 7,6zm589 28l11 7c-22,-18 10,-7 -22,-10 -24,-2 -16,0 -29,5l40 -2zm102 -29c29,-4 81,-28 97,-49l29 -31c32,-31 43,-47 81,-67l-14 -14c-2,-2 -2,3 -3,7l-15 25c-4,5 -10,11 -14,15 -1,2 -4,4 -5,5 -92,92 -148,85 -248,130 50,-10 53,-16 92,-21zm233 -187l21 -37 -4 -22c-10,27 -19,51 -42,69l0 0c11,-10 7,-2 25,-10z"/>
  <path class="fil5 str0" d="M2338 1007c9,9 17,6 29,15 33,-75 189,-41 275,-32 148,15 493,16 639,-1 90,-10 240,-41 280,38 1,-3 5,-8 6,-6 1,2 6,-6 7,-7 2,-1 6,-5 8,-7 -5,-109 -162,-70 -265,-58 -155,18 -537,16 -694,2 -124,-10 -266,-59 -285,56z"/>
  <path class="fil3 str0" d="M2282 1201c32,118 172,219 286,269 140,61 326,72 494,62 192,-12 287,-48 420,-136 98,-65 192,-180 203,-347 -19,128 -100,250 -200,320 -117,82 -241,113 -413,122 -272,15 -460,0 -663,-142 -79,-56 -64,-69 -106,-124 -1,-2 -3,-4 -4,-6 -2,-2 -4,-5 -6,-6l-11 -12z"/>
  <path class="fil6 str0" d="M2376 1121c16,57 89,128 143,155l-15 -21c47,22 27,7 12,21 2,2 5,2 7,6l29 13 -12 -15c-1,-4 -4,-5 -6,-7l57 32c-41,-16 -3,-3 -41,-12 2,2 5,2 6,5l57 26c-3,-2 -6,-5 -7,-6l-3 -12c223,93 379,48 559,49l-50 19c18,-2 37,-1 55,-5 3,-1 12,-4 15,-5 16,-6 11,-5 20,-12l-40 2c13,-5 5,-7 29,-5 32,3 0,-8 22,10 19,-5 31,-8 50,-15 12,-4 10,-3 21,-9 26,-13 8,-3 20,-12 -39,5 -42,11 -92,21 100,-45 156,-38 248,-130 1,-1 4,-3 5,-5 4,-4 10,-10 14,-15l15 -25c1,-4 1,-9 3,-7l14 14c-38,20 -49,36 -81,67l-29 31c40,-19 57,-41 78,-61 35,-34 34,-29 58,-77 -18,8 -14,0 -25,10l0 0c-29,18 -4,1 -22,17l-52 49c-197,145 -609,141 -827,65 -91,-31 -143,-64 -199,-130l-23 -24c17,33 30,52 51,76l52 55c-23,-37 -9,-13 -32,-36l-28 -31c-2,-2 -3,-4 -5,-6l-22 -25c-9,-11 -4,-4 -14,-17l-15 -18z"/>
  <ellipse class="fil7" cx="10486" cy="2117" rx="54" ry="89"/>
  <path class="fil8" d="M2023 3176l-15 0 55 -157 15 0 -55 157zm63 0l-15 0 55 -157 15 0 -55 157zm145 -142l0 13 -35 0 0 99 -16 0 0 -99 -35 0 0 -13 86 0zm8 56c0,-10 2,-18 5,-26 3,-7 7,-13 11,-18 5,-5 11,-9 18,-11 6,-3 13,-4 20,-4 8,0 15,1 21,4 6,2 12,6 17,11 5,5 9,11 12,18 2,8 4,16 4,26 0,9 -2,18 -4,25 -3,7 -7,14 -12,19 -5,4 -11,8 -17,11 -6,2 -13,3 -21,3 -7,0 -14,-1 -20,-3 -7,-3 -13,-7 -18,-11 -4,-5 -8,-12 -11,-19 -3,-7 -5,-16 -5,-25zm17 0c0,6 1,13 3,18 1,6 4,11 7,14 3,4 7,7 12,9 4,3 9,4 15,4 6,0 11,-1 16,-4 4,-2 8,-5 11,-9 3,-3 6,-8 8,-14 1,-5 2,-12 2,-18 0,-7 -1,-13 -2,-19 -2,-5 -5,-10 -8,-14 -3,-4 -7,-7 -11,-9 -5,-2 -10,-3 -16,-3 -6,0 -11,1 -15,3 -5,2 -9,5 -12,9 -3,4 -6,9 -7,14 -2,6 -3,12 -3,19zm207 0c0,9 -1,18 -4,25 -3,7 -8,13 -13,18 -6,5 -12,8 -20,10 -8,3 -16,4 -25,4 -5,0 -10,0 -15,-1 -6,0 -11,-1 -15,-2l0 -109c4,-1 9,-2 15,-2 5,0 10,-1 15,-1 9,0 17,2 25,4 8,2 14,6 20,10 5,5 10,11 13,18 3,7 4,16 4,26zm-61 43c15,0 26,-4 33,-11 8,-8 11,-19 11,-32 0,-14 -3,-25 -11,-32 -7,-8 -18,-12 -33,-12 -4,0 -8,0 -10,0 -3,0 -4,1 -5,1l0 86c1,0 2,0 5,0 2,0 6,0 10,0zm81 -43c0,-10 1,-18 4,-26 3,-7 7,-13 12,-18 4,-5 10,-9 17,-11 6,-3 13,-4 21,-4 7,0 14,1 20,4 6,2 12,6 17,11 5,5 9,11 12,18 2,8 4,16 4,26 0,9 -2,18 -4,25 -3,7 -7,14 -12,19 -5,4 -11,8 -17,11 -6,2 -13,3 -20,3 -8,0 -15,-1 -21,-3 -7,-3 -13,-7 -17,-11 -5,-5 -9,-12 -12,-19 -3,-7 -4,-16 -4,-25zm16 0c0,6 1,13 3,18 1,6 4,11 7,14 3,4 7,7 12,9 4,3 9,4 15,4 6,0 11,-1 16,-4 4,-2 8,-5 11,-9 3,-3 6,-8 8,-14 1,-5 2,-12 2,-18 0,-7 -1,-13 -2,-19 -2,-5 -5,-10 -8,-14 -3,-4 -7,-7 -11,-9 -5,-2 -10,-3 -16,-3 -6,0 -11,1 -15,3 -5,2 -9,5 -12,9 -3,4 -6,9 -7,14 -2,6 -3,12 -3,19z"/>
  <g>
   <path class="fil9" d="M2028 3238c-2,0 -5,-1 -7,-3 -2,-2 -3,-4 -3,-7 0,-3 1,-5 3,-7 2,-2 5,-3 7,-3 3,0 5,1 7,3 2,2 3,4 3,7 0,3 -1,5 -3,7 -2,2 -4,3 -7,3z"/>
   <g id="_471016952">
    <g>
     <polygon class="fil9" points="2711,3266 2786,3266 2786,3279 2711,3279 "/>
     <polygon class="fil9" points="2711,3301 2786,3301 2786,3313 2711,3313 "/>
     <polygon class="fil9" points="2619,3266 2693,3266 2693,3279 2619,3279 "/>
     <polygon class="fil9" points="2619,3301 2693,3301 2693,3313 2619,3313 "/>
    </g>
    <path class="fil9" d="M2095 3212c5,0 9,0 12,1 3,0 5,1 7,1l-3 13c-2,0 -3,-1 -6,-2 -2,0 -5,0 -9,0 -7,0 -11,1 -14,5 -3,4 -4,9 -4,16l0 7 32 0 0 13 -32 0 0 71 -16 0 0 -92c0,-10 3,-19 8,-25 6,-5 14,-8 25,-8z"/>
    <polygon class="fil9" points="2036,3337 2021,3337 2021,3253 2036,3253 "/>
   </g>
  </g>
  <path class="fil10" d="M2140 3289c0,14 2,27 6,38 4,12 10,23 18,33l-11 7c-8,-10 -15,-22 -20,-35 -5,-13 -8,-28 -8,-43 0,-15 3,-30 8,-43 5,-13 12,-25 20,-36l11 8c-8,10 -14,21 -18,32 -4,12 -6,25 -6,39zm68 33c9,0 15,-1 18,-4 3,-3 5,-6 5,-10 0,-3 -1,-6 -2,-8 -2,-2 -4,-4 -6,-6 -3,-1 -5,-3 -9,-4 -3,-1 -6,-2 -9,-4 -4,-1 -7,-2 -10,-4 -3,-1 -6,-3 -9,-5 -2,-2 -4,-5 -6,-8 -1,-3 -2,-6 -2,-11 0,-7 2,-14 7,-18 5,-5 11,-8 20,-10l0 -18 13 0 0 18c5,0 10,1 14,2 4,0 7,1 9,2l-3 13c-2,-1 -5,-2 -9,-3 -4,-1 -9,-2 -15,-2 -6,0 -11,2 -15,4 -3,3 -5,6 -5,11 0,2 0,4 1,6 1,2 3,3 5,5 2,1 4,2 7,3 2,1 5,2 9,4 4,1 8,3 12,5 3,1 7,3 9,6 3,2 6,5 7,9 2,3 3,7 3,12 0,7 -2,14 -7,18 -5,5 -12,8 -22,9l0 21 -13 0 0 -20c-8,-1 -14,-1 -19,-3 -4,-1 -8,-3 -10,-4l4 -12c3,1 7,3 12,4 4,1 10,2 16,2zm78 15l-15 0 0 -84 15 0 0 84zm-8 -99c-2,0 -5,-1 -6,-3 -2,-2 -3,-4 -3,-7 0,-3 1,-5 3,-7 1,-2 4,-3 6,-3 3,0 5,1 7,3 2,2 3,4 3,7 0,3 -1,5 -3,7 -2,2 -4,3 -7,3zm89 33c-2,-2 -4,-3 -8,-4 -3,-2 -7,-3 -11,-3 -4,0 -8,1 -11,3 -3,1 -6,4 -8,6 -2,3 -3,6 -4,10 -1,4 -1,8 -1,12 0,10 2,18 7,23 5,5 11,8 19,8 5,0 8,0 11,-1 2,0 5,0 6,-1l0 -53zm0 -57l15 -2 0 123c-3,1 -8,2 -13,3 -5,1 -12,1 -19,1 -6,0 -12,-1 -17,-3 -5,-2 -10,-5 -14,-8 -3,-4 -6,-9 -8,-14 -2,-6 -3,-12 -3,-19 0,-6 1,-12 2,-18 2,-5 5,-10 8,-14 3,-3 7,-6 12,-9 4,-2 10,-3 16,-3 5,0 9,1 13,2 4,1 6,3 8,4l0 -43zm37 81c0,-7 1,-14 3,-19 3,-6 5,-10 9,-14 4,-4 8,-6 12,-8 5,-2 10,-3 15,-3 11,0 20,4 26,11 6,7 9,17 9,32 0,1 0,1 0,2 0,1 0,2 0,3l-58 0c0,9 3,16 7,20 5,5 12,7 21,7 6,0 10,0 14,-1 3,-1 6,-2 8,-3l2 13c-2,1 -5,2 -10,3 -4,1 -10,1 -15,1 -8,0 -14,-1 -19,-3 -6,-2 -10,-5 -14,-9 -3,-4 -6,-9 -7,-14 -2,-5 -3,-11 -3,-18zm58 -8c0,-7 -2,-12 -5,-17 -4,-4 -8,-6 -15,-6 -3,0 -6,0 -9,2 -2,1 -5,3 -7,5 -1,2 -3,5 -4,8 -1,2 -2,5 -2,8l42 0zm67 40c3,0 6,-1 9,-1 3,0 5,0 7,-1l0 -25c-1,0 -3,-1 -5,-1 -3,0 -6,-1 -9,-1 -2,0 -5,0 -7,1 -3,0 -5,1 -7,2 -2,1 -4,2 -6,4 -1,2 -2,4 -2,7 0,6 2,9 6,11 3,2 8,4 14,4zm-2 -76c6,0 12,1 16,2 4,2 7,4 10,7 2,3 4,6 5,10 1,4 2,8 2,13l0 53c-2,0 -3,0 -6,1 -2,0 -5,1 -8,1 -2,0 -6,1 -9,1 -3,0 -7,0 -10,0 -5,0 -9,0 -13,-1 -4,-1 -8,-3 -11,-5 -3,-2 -5,-5 -6,-8 -2,-4 -3,-8 -3,-13 0,-4 1,-8 3,-12 2,-3 4,-6 8,-8 3,-2 7,-3 11,-4 4,-1 9,-2 14,-2 1,0 3,0 4,0 2,1 3,1 5,1 1,0 3,1 4,1 1,0 2,0 2,0l0 -4c0,-2 0,-5 -1,-7 0,-3 -1,-5 -3,-7 -1,-2 -3,-3 -5,-4 -3,-1 -6,-2 -10,-2 -5,0 -9,0 -13,1 -4,1 -7,1 -8,2l-2 -12c2,-1 5,-2 10,-3 4,-1 9,-1 14,-1zm851 38c0,-14 -2,-27 -6,-39 -4,-11 -10,-22 -18,-32l11 -8c8,11 15,23 20,36 5,13 8,28 8,43 0,15 -3,30 -8,43 -5,13 -12,25 -20,35l-11 -7c8,-10 14,-21 18,-33 4,-11 6,-24 6,-38z"/>
  <path class="fil11" d="M2860 3214l0 8c0,6 0,11 -1,17 0,6 -1,11 -2,17l-9 0c-1,-6 -2,-11 -2,-17 -1,-6 -1,-11 -1,-17l0 -8 15 0zm29 0l0 8c0,6 0,11 -1,17 -1,6 -1,11 -2,17l-9 0c-1,-6 -2,-11 -3,-17 0,-6 -1,-11 -1,-17l0 -8 16 0zm78 115c-1,1 -4,2 -7,3 -4,2 -8,2 -13,2 -6,0 -10,0 -15,-2 -4,-2 -8,-4 -12,-8 -3,-3 -6,-7 -8,-12 -1,-5 -2,-12 -2,-19 0,-6 0,-11 2,-16 2,-6 5,-10 8,-14 4,-4 8,-6 13,-9 5,-2 11,-3 17,-3 7,0 14,1 19,2 5,1 9,2 13,3l0 75c0,13 -3,22 -10,28 -7,6 -17,9 -30,9 -6,0 -11,-1 -15,-1 -5,-1 -9,-2 -13,-3l3 -14c3,2 7,3 11,4 5,0 9,1 14,1 9,0 15,-2 19,-5 4,-4 6,-10 6,-17l0 -4zm0 -63c-2,0 -4,0 -6,-1 -3,0 -6,0 -10,0 -9,0 -15,2 -19,8 -5,5 -7,12 -7,21 0,4 1,9 2,12 1,4 3,6 5,9 2,2 5,4 7,5 3,1 6,1 9,1 4,0 8,0 11,-1 3,-1 6,-3 8,-4l0 -50zm116 29c0,7 -1,13 -3,18 -2,6 -5,10 -8,14 -4,4 -8,7 -13,9 -4,2 -10,4 -15,4 -6,0 -12,-2 -16,-4 -5,-2 -9,-5 -13,-9 -3,-4 -6,-8 -8,-14 -2,-5 -3,-11 -3,-18 0,-6 1,-12 3,-18 2,-5 5,-10 8,-14 4,-4 8,-7 13,-9 4,-2 10,-3 16,-3 5,0 11,1 15,3 5,2 9,5 13,9 3,4 6,9 8,14 2,6 3,12 3,18zm-16 0c0,-9 -2,-17 -6,-22 -4,-6 -10,-9 -17,-9 -8,0 -14,3 -18,9 -4,5 -6,13 -6,22 0,10 2,17 6,23 4,5 10,8 18,8 7,0 13,-3 17,-8 4,-6 6,-13 6,-23zm112 0c0,7 -1,13 -3,18 -1,6 -4,10 -8,14 -3,4 -7,7 -12,9 -5,2 -10,4 -16,4 -6,0 -11,-2 -16,-4 -5,-2 -9,-5 -13,-9 -3,-4 -6,-8 -8,-14 -2,-5 -3,-11 -3,-18 0,-6 1,-12 3,-18 2,-5 5,-10 8,-14 4,-4 8,-7 13,-9 5,-2 10,-3 16,-3 6,0 11,1 16,3 5,2 9,5 12,9 4,4 7,9 8,14 2,6 3,12 3,18zm-15 0c0,-9 -2,-17 -7,-22 -4,-6 -10,-9 -17,-9 -8,0 -13,3 -18,9 -4,5 -6,13 -6,22 0,10 2,17 6,23 5,5 10,8 18,8 7,0 13,-3 17,-8 5,-6 7,-13 7,-23zm92 -24c-2,-2 -5,-3 -8,-4 -4,-2 -7,-3 -12,-3 -4,0 -8,1 -11,3 -3,1 -5,4 -7,6 -2,3 -4,6 -4,10 -1,4 -2,8 -2,12 0,10 3,18 8,23 4,5 11,8 19,8 4,0 8,0 10,-1 3,0 5,0 7,-1l0 -53zm0 -57l15 -2 0 123c-4,1 -8,2 -13,3 -6,1 -12,1 -19,1 -7,0 -12,-1 -18,-3 -5,-2 -9,-5 -13,-8 -4,-4 -6,-9 -8,-14 -2,-6 -3,-12 -3,-19 0,-6 0,-12 2,-18 2,-5 4,-10 7,-14 4,-3 8,-6 12,-9 5,-2 10,-3 17,-3 4,0 9,1 12,2 4,1 7,3 9,4l0 -43zm56 0l0 8c0,6 0,11 -1,17 -1,6 -2,11 -3,17l-8 0c-1,-6 -2,-11 -3,-17 -1,-6 -1,-11 -1,-17l0 -8 16 0zm29 0l0 8c0,6 -1,11 -1,17 -1,6 -2,11 -3,17l-9 0c-1,-6 -2,-11 -2,-17 -1,-6 -1,-11 -1,-17l0 -8 16 0z"/>
  <path class="fil9" d="M2183 3463c1,0 3,0 5,1 1,0 3,0 5,0 1,1 3,1 4,1 1,0 2,1 3,1l-3 13c-1,0 -3,-1 -6,-2 -2,0 -6,0 -10,0 -3,0 -6,0 -9,0 -2,1 -4,1 -5,2l0 71 -15 0 0 -81c4,-2 8,-3 13,-4 6,-1 12,-2 18,-2zm28 45c0,-8 1,-14 3,-20 2,-6 5,-10 8,-14 4,-4 8,-6 13,-8 4,-2 9,-3 14,-3 11,0 20,4 26,11 6,7 9,18 9,32 0,1 0,2 0,3 0,1 0,2 0,2l-58 0c1,9 3,16 8,20 4,5 11,7 21,7 5,0 9,0 13,-1 4,-1 6,-2 8,-3l2 13c-2,1 -5,2 -9,3 -5,1 -10,1 -16,1 -7,0 -14,-1 -19,-3 -5,-2 -10,-5 -13,-9 -4,-4 -6,-9 -8,-14 -2,-5 -2,-11 -2,-17zm57 -9c1,-7 -1,-12 -5,-17 -3,-4 -8,-6 -14,-6 -4,0 -7,1 -9,2 -3,1 -5,3 -7,5 -2,2 -3,5 -4,8 -1,2 -2,5 -2,8l41 0zm53 -34l32 0 0 13 -32 0 0 39c0,4 0,7 1,10 0,3 1,5 3,7 1,1 2,2 4,3 2,1 5,1 7,1 5,0 8,-1 11,-2 3,-1 5,-1 6,-2l3 13c-2,1 -4,1 -8,3 -4,1 -8,1 -13,1 -6,0 -11,0 -14,-2 -4,-1 -7,-4 -9,-6 -3,-3 -4,-7 -5,-11 -1,-5 -1,-9 -1,-15l0 -75 15 -3 0 26zm118 82c-3,1 -8,2 -13,3 -6,1 -12,1 -20,1 -6,0 -12,-1 -16,-3 -5,-1 -8,-4 -11,-8 -3,-3 -5,-7 -6,-12 -1,-5 -2,-10 -2,-15l0 -48 15 0 0 44c0,11 2,18 5,22 4,5 9,7 17,7 1,0 3,0 5,0 1,0 3,0 5,-1 1,0 2,0 4,0 1,0 2,0 2,-1l0 -71 15 0 0 82zm58 -84c2,0 3,0 5,1 1,0 3,0 5,0 1,1 3,1 4,1 1,0 2,1 3,1l-3 13c-1,0 -3,-1 -5,-2 -3,0 -7,0 -11,0 -3,0 -6,0 -8,0 -3,1 -5,1 -6,2l0 71 -15 0 0 -81c4,-2 8,-3 13,-4 6,-1 12,-2 18,-2zm32 5c4,-1 8,-2 14,-3 6,-1 12,-2 20,-2 7,0 12,1 17,3 4,2 8,5 10,8 3,4 5,8 6,12 1,5 1,10 1,16l0 48 -15 0 0 -45c0,-5 0,-9 -1,-13 0,-4 -2,-7 -3,-9 -2,-2 -4,-4 -7,-5 -2,-1 -6,-1 -10,-1 -1,0 -3,0 -5,0 -1,0 -3,0 -5,0 -1,0 -3,1 -4,1 -1,0 -2,0 -3,0l0 72 -15 0 0 -82z"/>
  <path class="fil10" d="M2691 3534c8,0 14,-1 17,-4 4,-3 5,-6 5,-10 0,-3 -1,-6 -2,-8 -1,-2 -3,-4 -6,-5 -2,-2 -5,-4 -8,-5 -3,-1 -7,-2 -10,-4 -3,-1 -7,-2 -10,-4 -3,-1 -6,-3 -8,-5 -3,-2 -5,-5 -6,-8 -2,-2 -3,-6 -3,-10 0,-8 3,-14 7,-19 5,-5 12,-8 20,-10l0 -18 14 0 0 18c4,0 9,1 13,2 4,1 7,2 10,2l-3 13c-3,-1 -6,-2 -10,-3 -4,-1 -9,-2 -15,-2 -6,0 -11,2 -15,4 -3,3 -5,6 -5,11 0,2 1,4 2,6 1,2 2,3 4,5 2,1 4,2 7,3 3,1 6,3 9,4 4,1 8,3 12,5 4,2 7,4 10,6 3,2 5,5 7,9 1,3 2,7 2,12 0,8 -2,14 -7,18 -4,5 -12,8 -21,9l0 21 -14 0 0 -20c-7,0 -13,-1 -18,-3 -5,-1 -9,-3 -11,-4l4 -12c3,1 7,3 12,4 4,1 10,2 17,2zm76 -69l32 0 0 13 -32 0 0 39c0,4 1,7 1,10 1,3 2,5 3,7 2,1 3,2 5,3 2,1 4,1 7,1 4,0 8,-1 11,-2 3,-1 5,-1 6,-2l3 13c-2,1 -5,1 -8,3 -4,1 -8,1 -13,1 -6,0 -11,0 -15,-2 -3,-1 -6,-4 -9,-6 -2,-3 -3,-7 -4,-11 -1,-5 -2,-9 -2,-15l0 -75 15 -3 0 26zm124 42c0,7 -1,13 -3,19 -2,5 -4,10 -8,13 -3,4 -8,7 -12,9 -5,3 -11,4 -16,4 -6,0 -11,-1 -16,-4 -5,-2 -9,-5 -13,-9 -3,-3 -6,-8 -8,-13 -2,-6 -3,-12 -3,-19 0,-6 1,-12 3,-18 2,-5 5,-10 8,-14 4,-4 8,-7 13,-9 5,-2 10,-3 16,-3 5,0 11,1 16,3 4,2 9,5 12,9 4,4 6,9 8,14 2,6 3,12 3,18zm-15 0c0,-9 -3,-17 -7,-22 -4,-6 -10,-9 -17,-9 -8,0 -13,3 -18,9 -4,5 -6,13 -6,22 0,10 2,17 6,23 5,6 10,8 18,8 7,0 13,-2 17,-8 4,-6 7,-13 7,-23zm106 29l0 14 -68 0 0 -113 16 0 0 99 52 0zm45 3c3,0 6,0 9,-1 3,0 5,0 7,0l0 -26c-1,0 -3,-1 -5,-1 -3,0 -6,-1 -9,-1 -2,0 -5,1 -7,1 -3,0 -5,1 -7,2 -3,1 -4,2 -6,4 -1,2 -2,4 -2,7 0,6 2,9 5,11 4,3 9,4 15,4zm-2 -76c6,0 11,1 16,2 4,2 7,4 10,7 2,3 4,6 5,10 1,4 2,9 2,13l0 53c-2,0 -3,1 -6,1 -2,0 -5,1 -8,1 -3,0 -6,1 -9,1 -4,0 -7,0 -10,0 -5,0 -9,0 -13,-1 -4,-1 -8,-3 -11,-5 -3,-2 -5,-5 -7,-8 -1,-4 -2,-8 -2,-13 0,-4 1,-8 3,-12 2,-3 4,-6 8,-8 3,-2 7,-3 11,-4 4,-1 9,-2 13,-2 2,0 4,0 5,1 2,0 3,0 5,0 1,0 3,1 4,1 1,0 1,0 2,0l0 -4c0,-2 0,-5 -1,-7 0,-3 -1,-5 -3,-7 -1,-2 -3,-3 -6,-4 -2,-1 -5,-2 -9,-2 -5,0 -9,0 -13,1 -4,1 -7,2 -8,2l-2 -12c2,-1 5,-2 9,-3 5,-1 10,-1 15,-1zm125 84c-3,1 -8,2 -13,3 -6,1 -13,1 -20,1 -6,0 -12,-1 -16,-3 -5,-1 -8,-4 -11,-8 -3,-3 -5,-7 -6,-12 -1,-5 -2,-10 -2,-15l0 -48 15 0 0 44c0,11 2,18 5,22 3,5 9,7 17,7 1,0 3,0 5,0 1,0 3,0 5,-1 1,0 2,0 4,0 1,0 2,0 2,-1l0 -71 15 0 0 82zm27 -79c3,-1 8,-2 14,-3 6,-1 12,-2 20,-2 6,0 12,1 16,3 5,2 8,5 11,8 3,4 4,8 5,12 2,5 2,10 2,16l0 48 -15 0 0 -45c0,-5 0,-9 -1,-13 -1,-4 -2,-7 -4,-9 -1,-2 -3,-4 -6,-5 -3,-1 -6,-1 -10,-1 -2,0 -3,0 -5,0 -2,0 -3,0 -5,0 -2,0 -3,1 -4,1 -1,0 -2,0 -3,0l0 72 -15 0 0 -82zm130 83c-6,0 -12,-1 -18,-3 -5,-2 -9,-5 -13,-9 -3,-4 -6,-8 -7,-14 -2,-5 -3,-11 -3,-17 0,-7 1,-13 3,-18 2,-6 4,-10 8,-14 3,-4 8,-7 13,-10 5,-2 10,-3 16,-3 4,0 8,0 12,1 4,1 7,2 11,3l-4 13c-2,-1 -5,-2 -8,-3 -3,0 -6,-1 -9,-1 -9,0 -15,3 -20,8 -4,6 -6,13 -6,24 0,4 0,8 1,12 1,4 3,7 5,10 2,2 5,5 9,6 3,1 7,2 12,2 4,0 8,0 11,-1 3,-1 6,-2 8,-2l2 12c-1,1 -2,1 -4,2 -1,0 -3,1 -5,1 -2,0 -5,1 -7,1 -2,0 -4,0 -7,0zm40 -1l0 -124 15 -2 0 43c3,-1 6,-2 9,-3 3,0 6,-1 9,-1 7,0 13,1 17,3 4,2 8,5 11,8 2,4 4,8 5,12 1,5 2,10 2,16l0 48 -15 0 0 -45c0,-5 -1,-9 -1,-13 -1,-4 -2,-7 -4,-9 -1,-2 -4,-4 -6,-5 -3,-1 -6,-1 -10,-1 -2,0 -4,0 -5,0 -2,0 -4,0 -5,1 -2,0 -3,0 -4,1 -2,0 -3,0 -3,0l0 71 -15 0zm108 0l-15 0 0 -85 15 0 0 85zm-8 -100c-2,0 -5,-1 -6,-3 -2,-2 -3,-4 -3,-7 0,-3 1,-5 3,-7 1,-2 4,-3 6,-3 3,0 5,1 7,3 2,2 3,4 3,7 0,3 -1,5 -3,7 -2,2 -4,3 -7,3zm89 33c-2,-1 -4,-3 -8,-4 -3,-2 -7,-2 -11,-2 -4,0 -8,0 -11,2 -3,1 -6,4 -8,6 -2,3 -3,6 -4,10 -1,4 -1,8 -1,12 0,10 2,18 7,23 5,5 11,8 19,8 5,0 8,0 11,0 3,-1 5,-1 6,-2l0 -53zm0 -57l15 -2 0 123c-3,1 -8,2 -13,3 -5,1 -12,1 -19,1 -6,0 -12,-1 -17,-3 -5,-2 -10,-5 -13,-8 -4,-4 -7,-9 -9,-14 -2,-6 -3,-12 -3,-19 0,-6 1,-12 3,-17 1,-6 4,-11 7,-14 3,-4 7,-7 12,-10 5,-2 10,-3 16,-3 5,0 9,1 13,2 4,1 6,3 8,4l0 -43zm37 82c0,-8 1,-14 3,-20 3,-6 5,-10 9,-14 4,-4 8,-6 12,-8 5,-2 10,-3 15,-3 11,0 20,4 26,11 6,7 9,18 9,32 0,1 0,2 0,3 0,1 0,2 0,2l-58 0c1,9 3,16 8,20 4,5 11,7 20,7 6,0 10,0 14,-1 3,-1 6,-2 8,-3l2 13c-2,1 -5,2 -10,3 -4,1 -10,1 -15,1 -8,0 -14,-1 -19,-3 -6,-2 -10,-5 -14,-9 -3,-4 -6,-9 -7,-14 -2,-5 -3,-11 -3,-17zm58 -9c0,-7 -2,-12 -5,-17 -4,-4 -8,-6 -15,-6 -3,0 -6,1 -9,2 -2,1 -5,3 -6,5 -2,2 -4,5 -5,8 -1,2 -1,5 -2,8l42 0zm67 40c3,0 6,0 9,-1 3,0 5,0 7,0l0 -26c-1,0 -3,-1 -5,-1 -3,0 -6,-1 -9,-1 -2,0 -5,1 -7,1 -3,0 -5,1 -7,2 -2,1 -4,2 -5,4 -2,2 -3,4 -3,7 0,6 2,9 6,11 3,3 8,4 14,4zm-2 -76c6,0 12,1 16,2 4,2 7,4 10,7 2,3 4,6 5,10 1,4 2,9 2,13l0 53c-1,0 -3,1 -6,1 -2,0 -5,1 -7,1 -3,0 -7,1 -10,1 -3,0 -7,0 -10,0 -5,0 -9,0 -13,-1 -4,-1 -8,-3 -11,-5 -3,-2 -5,-5 -6,-8 -2,-4 -3,-8 -3,-13 0,-4 1,-8 3,-12 2,-3 4,-6 8,-8 3,-2 7,-3 11,-4 4,-1 9,-2 14,-2 1,0 3,0 4,1 2,0 4,0 5,0 1,0 3,1 4,1 1,0 2,0 2,0l0 -4c0,-2 0,-5 -1,-7 0,-3 -1,-5 -3,-7 -1,-2 -3,-3 -5,-4 -3,-1 -6,-2 -10,-2 -5,0 -9,0 -13,1 -4,1 -6,2 -8,2l-2 -12c2,-1 5,-2 10,-3 4,-1 9,-1 14,-1zm74 68c0,1 1,2 1,3 0,0 0,1 0,2 0,7 -1,14 -3,20 -2,7 -5,13 -9,19l-11 -3c2,-6 4,-12 5,-17 1,-6 1,-11 1,-16 0,-2 0,-3 0,-4 0,-2 0,-3 0,-4l16 0zm2 -55c0,3 -1,6 -3,8 -2,2 -4,3 -8,3 -3,0 -6,-1 -8,-3 -1,-2 -2,-5 -2,-8 0,-3 1,-5 2,-8 2,-2 5,-3 8,-3 4,0 6,1 8,3 2,3 3,5 3,8z"/>
  <path class="fil9" d="M2017 3698c0,-8 1,-14 3,-20 2,-6 5,-10 9,-14 3,-3 7,-6 12,-8 4,-2 9,-3 14,-3 11,0 20,4 26,11 6,7 9,18 9,32 0,1 0,2 0,3 0,1 0,2 0,2l-58 0c1,9 4,16 8,20 4,5 11,7 21,7 5,0 10,0 13,-1 4,-1 7,-2 8,-3l2 13c-1,1 -5,2 -9,3 -5,1 -10,2 -16,2 -7,0 -14,-2 -19,-4 -5,-2 -10,-5 -13,-9 -4,-4 -6,-8 -8,-14 -1,-5 -2,-11 -2,-17zm58 -9c0,-6 -2,-12 -6,-16 -3,-5 -8,-7 -14,-7 -4,0 -7,1 -9,2 -3,1 -5,3 -7,5 -2,2 -3,5 -4,8 -1,3 -2,5 -2,8l42 0zm63 52c-9,0 -16,-2 -20,-6 -4,-4 -6,-9 -6,-17l0 -102 15 -2 0 101c0,3 1,5 1,6 1,2 1,3 2,4 1,1 2,2 4,2 2,1 4,1 6,2l-2 12zm39 -12c6,0 11,-1 14,-3 3,-1 4,-4 4,-7 0,-4 -1,-7 -4,-9 -3,-2 -8,-5 -14,-8 -4,-1 -7,-2 -10,-4 -3,-1 -5,-2 -7,-4 -3,-2 -4,-4 -6,-7 -1,-3 -2,-6 -2,-10 0,-7 3,-13 9,-17 5,-5 13,-7 22,-7 3,0 5,0 7,1 3,0 5,0 7,1 2,0 4,0 5,1 2,0 3,1 4,1l-3 13c-1,-1 -4,-2 -7,-3 -4,-1 -8,-1 -13,-1 -4,0 -8,1 -11,2 -3,2 -5,5 -5,8 0,2 1,4 2,5 0,1 1,3 3,4 1,1 3,2 5,3 2,1 5,2 8,3 4,2 8,3 11,5 3,1 6,3 8,5 2,2 4,4 5,7 1,2 2,6 2,10 0,8 -3,14 -9,18 -6,4 -14,6 -25,6 -7,0 -13,-1 -17,-2 -5,-2 -7,-3 -9,-3l3 -13c2,1 4,1 8,3 4,1 9,2 15,2zm49 -31c0,-8 1,-14 3,-20 2,-6 5,-10 9,-14 3,-3 7,-6 12,-8 5,-2 9,-3 14,-3 12,0 20,4 26,11 6,7 9,18 9,32 0,1 0,2 0,3 0,1 0,2 0,2l-57 0c0,9 3,16 7,20 5,5 12,7 21,7 5,0 10,0 13,-1 4,-1 7,-2 9,-3l2 13c-2,1 -5,2 -10,3 -5,1 -10,2 -16,2 -7,0 -13,-2 -19,-4 -5,-2 -9,-5 -13,-9 -3,-4 -6,-8 -8,-14 -1,-5 -2,-11 -2,-17zm58 -9c0,-6 -2,-12 -5,-16 -4,-5 -9,-7 -15,-7 -3,0 -6,1 -9,2 -3,1 -5,3 -7,5 -2,2 -3,5 -4,8 -1,3 -2,5 -2,8l42 0z"/>
  <path class="fil9" d="M2184 3851c1,0 2,0 4,1 2,0 3,0 5,0 2,0 3,1 5,1 1,0 2,0 3,1l-3 13c-1,-1 -3,-1 -6,-2 -3,0 -6,-1 -11,-1 -2,0 -5,1 -8,1 -3,1 -4,1 -5,2l0 70 -15 0 0 -80c3,-2 8,-3 13,-4 5,-1 11,-2 18,-2zm27 44c0,-7 1,-14 3,-19 3,-6 5,-10 9,-14 4,-4 8,-6 12,-8 5,-2 10,-3 15,-3 11,0 20,3 26,11 6,7 9,17 9,32 0,1 0,1 0,2 0,1 0,2 0,3l-58 0c0,9 3,16 7,20 5,5 12,7 21,7 6,0 10,0 14,-1 3,-1 6,-2 8,-3l2 13c-2,1 -5,2 -10,3 -4,1 -10,1 -15,1 -8,0 -14,-1 -19,-3 -6,-2 -10,-5 -14,-9 -3,-4 -6,-9 -7,-14 -2,-5 -3,-11 -3,-18zm58 -8c0,-7 -2,-12 -5,-17 -4,-4 -8,-6 -15,-6 -3,0 -6,0 -9,2 -2,1 -5,3 -7,5 -1,2 -3,5 -4,8 -1,2 -2,5 -2,8l42 0zm52 -34l32 0 0 13 -32 0 0 39c0,4 1,7 1,10 1,3 2,5 3,7 1,1 3,2 5,3 2,1 4,1 7,1 4,0 8,-1 11,-2 2,-1 4,-1 5,-2l3 13c-1,0 -4,1 -8,2 -3,2 -8,2 -13,2 -5,0 -10,-1 -14,-2 -3,-1 -6,-4 -9,-7 -2,-3 -4,-6 -4,-10 -1,-5 -2,-10 -2,-15l0 -75 15 -3 0 26zm119 82c-3,1 -8,2 -14,3 -5,1 -12,1 -19,1 -7,0 -12,-1 -17,-3 -4,-2 -8,-4 -10,-8 -3,-3 -5,-7 -6,-12 -1,-5 -2,-10 -2,-16l0 -47 15 0 0 44c0,10 2,18 5,22 3,5 9,7 16,7 2,0 4,0 5,0 2,0 4,-1 5,-1 2,0 3,0 4,0 2,0 2,-1 3,-1l0 -71 15 0 0 82zm58 -84c1,0 3,0 4,1 2,0 4,0 5,0 2,0 3,1 5,1 1,0 2,0 3,1l-3 13c-1,-1 -3,-1 -6,-2 -3,0 -6,-1 -10,-1 -3,0 -6,1 -9,1 -3,1 -4,1 -5,2l0 70 -15 0 0 -80c3,-2 8,-3 13,-4 5,-1 11,-2 18,-2zm32 4c3,0 8,-1 14,-2 5,-1 12,-2 19,-2 7,0 13,1 17,3 5,2 8,5 11,8 2,3 4,8 5,12 1,5 2,10 2,16l0 47 -15 0 0 -44c0,-5 0,-9 -1,-13 -1,-4 -2,-7 -4,-9 -1,-2 -3,-4 -6,-5 -3,-1 -6,-1 -10,-1 -2,0 -3,0 -5,0 -2,0 -4,0 -5,0 -2,0 -3,0 -4,1 -2,0 -2,0 -3,0l0 71 -15 0 0 -82z"/>
  <path class="fil10" d="M2691 3922c9,0 14,-1 18,-4 3,-3 5,-6 5,-10 0,-3 -1,-6 -2,-8 -2,-2 -4,-4 -6,-6 -3,-1 -5,-3 -9,-4 -3,-1 -6,-3 -9,-4 -4,-1 -7,-2 -10,-4 -3,-1 -6,-3 -9,-5 -2,-2 -4,-5 -6,-8 -1,-3 -2,-6 -2,-11 0,-7 2,-14 7,-18 4,-5 11,-9 20,-10l0 -18 13 0 0 18c5,0 10,1 14,1 4,1 7,2 9,3l-3 13c-2,-1 -6,-2 -9,-3 -4,-1 -9,-2 -15,-2 -7,0 -12,2 -15,4 -4,3 -5,6 -5,11 0,2 0,4 1,6 1,2 3,3 5,5 2,1 4,2 7,3 2,1 5,2 8,4 5,1 9,3 12,5 4,1 8,3 10,6 3,2 6,5 7,9 2,3 3,7 3,12 0,7 -2,14 -7,18 -5,5 -12,8 -22,9l0 21 -13 0 0 -20c-8,-1 -14,-1 -19,-3 -4,-1 -8,-3 -10,-4l4 -12c3,1 7,3 11,4 5,1 11,2 17,2zm77 -69l32 0 0 13 -32 0 0 39c0,4 0,7 1,10 1,3 2,5 3,7 1,1 3,2 5,3 2,1 4,1 7,1 4,0 8,-1 10,-2 3,-1 5,-1 6,-2l3 13c-1,0 -4,1 -8,2 -4,2 -8,2 -13,2 -5,0 -10,-1 -14,-2 -4,-1 -7,-4 -9,-7 -2,-3 -4,-6 -5,-10 -1,-5 -1,-10 -1,-15l0 -75 15 -3 0 26zm124 42c0,7 -1,13 -3,18 -2,6 -5,10 -8,14 -4,4 -8,7 -13,9 -5,2 -10,3 -16,3 -5,0 -11,-1 -16,-3 -4,-2 -9,-5 -12,-9 -4,-4 -6,-8 -8,-14 -2,-5 -3,-11 -3,-18 0,-6 1,-12 3,-18 2,-5 4,-10 8,-14 3,-4 8,-7 12,-9 5,-2 11,-3 16,-3 6,0 11,1 16,3 5,2 9,5 13,9 3,4 6,9 8,14 2,6 3,12 3,18zm-16 0c0,-9 -2,-17 -6,-22 -5,-6 -10,-9 -18,-9 -7,0 -13,3 -17,9 -4,5 -7,13 -7,22 0,10 3,17 7,23 4,5 10,8 17,8 8,0 13,-3 18,-8 4,-6 6,-13 6,-23zm69 43c-2,0 -5,0 -7,0 -3,0 -6,0 -8,0 -3,-1 -6,-1 -8,-1 -3,0 -5,-1 -7,-1l0 -109c2,-1 4,-1 7,-2 2,0 5,0 8,0 2,-1 5,-1 8,-1 2,0 5,0 7,0 6,0 12,0 18,1 6,1 11,3 15,5 4,3 7,6 10,9 2,4 3,9 3,14 0,7 -1,12 -4,16 -3,3 -7,6 -12,8 7,2 12,5 16,10 4,4 6,10 6,17 0,12 -4,20 -13,26 -8,6 -21,8 -39,8zm-15 -53l0 40c1,0 3,0 5,0 1,0 3,0 4,0 2,0 5,0 7,0 5,0 9,0 13,-1 4,0 8,-1 11,-3 3,-1 6,-3 8,-6 2,-3 3,-6 3,-10 0,-4 -1,-7 -3,-10 -1,-2 -3,-4 -6,-6 -2,-1 -5,-2 -9,-3 -4,-1 -8,-1 -12,-1l-21 0zm0 -13l17 0c4,0 7,0 11,0 3,-1 6,-2 9,-3 2,-2 4,-4 6,-6 1,-2 2,-5 2,-8 0,-4 -1,-6 -2,-9 -2,-2 -4,-4 -6,-5 -3,-1 -6,-2 -10,-3 -3,-1 -7,-1 -11,-1 -4,0 -7,0 -10,0 -2,0 -4,0 -6,1l0 34zm120 -21c1,0 3,0 4,1 2,0 4,0 5,0 2,0 3,1 5,1 1,0 2,0 3,1l-3 13c-1,-1 -3,-1 -6,-2 -3,0 -6,-1 -10,-1 -3,0 -6,1 -9,1 -3,1 -4,1 -5,2l0 70 -15 0 0 -80c3,-2 8,-3 13,-4 5,-1 11,-2 18,-2zm60 76c4,0 7,-1 10,-1 3,0 5,0 7,-1l0 -25c-1,0 -3,-1 -5,-1 -3,-1 -6,-1 -9,-1 -3,0 -5,0 -7,1 -3,0 -5,1 -7,2 -3,1 -4,2 -6,4 -1,2 -2,4 -2,7 0,5 2,9 5,11 4,2 9,4 14,4zm-1 -76c6,0 11,1 15,2 5,2 8,4 11,7 2,3 4,6 5,10 1,4 2,8 2,13l0 53c-2,0 -4,0 -6,1 -2,0 -5,1 -8,1 -3,0 -6,0 -9,1 -4,0 -7,0 -10,0 -5,0 -9,0 -13,-1 -4,-1 -8,-3 -11,-5 -3,-2 -5,-5 -7,-8 -1,-4 -2,-8 -2,-13 0,-4 1,-8 3,-12 2,-3 4,-6 7,-8 4,-2 7,-3 12,-4 4,-1 9,-2 13,-2 2,0 4,0 5,0 2,1 3,1 5,1 1,0 2,1 4,1 1,0 1,0 2,0l0 -4c0,-2 0,-5 -1,-7 -1,-3 -1,-5 -3,-7 -1,-2 -3,-3 -6,-4 -2,-2 -5,-2 -9,-2 -5,0 -9,0 -13,1 -4,1 -7,1 -9,2l-1 -12c2,-1 5,-2 9,-3 5,-1 10,-1 15,-1zm73 86l-15 0 0 -84 15 0 0 84zm-7 -99c-3,0 -5,-1 -7,-3 -2,-2 -3,-4 -3,-7 0,-3 1,-6 3,-7 2,-2 4,-3 7,-3 2,0 5,1 7,3 1,1 2,4 2,7 0,3 -1,5 -2,7 -2,2 -5,3 -7,3zm34 17c3,0 8,-1 14,-2 5,-1 12,-2 19,-2 7,0 13,1 17,3 5,2 8,5 11,8 2,3 4,8 5,12 1,5 2,10 2,16l0 47 -15 0 0 -44c0,-5 0,-9 -1,-13 -1,-4 -2,-7 -4,-9 -1,-2 -3,-4 -6,-5 -3,-1 -6,-1 -10,-1 -2,0 -3,0 -5,0 -2,0 -4,0 -5,0 -2,0 -3,0 -4,1 -2,0 -2,0 -3,0l0 71 -15 0 0 -82zm113 72c6,0 11,-1 14,-3 3,-2 4,-4 4,-8 0,-3 -1,-6 -4,-8 -3,-3 -8,-5 -14,-8 -4,-1 -7,-2 -10,-4 -3,-1 -5,-3 -7,-5 -3,-1 -4,-4 -6,-6 -1,-3 -2,-6 -2,-10 0,-7 3,-13 9,-17 5,-5 13,-7 22,-7 3,0 5,0 7,0 3,1 5,1 7,1 2,1 4,1 5,2 2,0 3,0 4,1l-3 13c-1,-1 -4,-2 -7,-3 -4,-1 -8,-1 -13,-1 -4,0 -8,0 -11,2 -3,2 -4,4 -4,8 0,2 0,3 1,5 0,1 1,3 3,4 1,1 3,2 5,3 2,1 5,2 8,3 4,1 8,3 11,4 3,2 6,4 8,5 2,2 4,5 5,8 1,2 2,6 2,10 0,7 -3,13 -9,17 -6,4 -14,6 -25,6 -7,0 -13,0 -17,-2 -4,-1 -7,-2 -9,-2l3 -13c2,0 4,1 8,3 4,1 9,2 15,2zm68 -74l32 0 0 13 -32 0 0 39c0,4 0,7 1,10 0,3 1,5 3,7 1,1 3,2 4,3 2,1 5,1 7,1 5,0 8,-1 11,-2 3,-1 5,-1 6,-2l3 13c-2,0 -4,1 -8,2 -4,2 -8,2 -13,2 -6,0 -10,-1 -14,-2 -4,-1 -7,-4 -9,-7 -2,-3 -4,-6 -5,-10 -1,-5 -1,-10 -1,-15l0 -75 15 -3 0 26zm124 42c0,7 -1,13 -3,18 -2,6 -5,10 -8,14 -4,4 -8,7 -13,9 -5,2 -10,3 -16,3 -6,0 -11,-1 -16,-3 -5,-2 -9,-5 -12,-9 -4,-4 -7,-8 -9,-14 -2,-5 -3,-11 -3,-18 0,-6 1,-12 3,-18 2,-5 5,-10 9,-14 3,-4 7,-7 12,-9 5,-2 10,-3 16,-3 6,0 11,1 16,3 5,2 9,5 13,9 3,4 6,9 8,14 2,6 3,12 3,18zm-16 0c0,-9 -2,-17 -7,-22 -4,-6 -10,-9 -17,-9 -7,0 -13,3 -17,9 -5,5 -7,13 -7,22 0,10 2,17 7,23 4,5 10,8 17,8 7,0 13,-3 17,-8 5,-6 7,-13 7,-23zm69 -44c1,0 2,0 4,1 2,0 3,0 5,0 2,0 3,1 5,1 1,0 2,0 3,1l-3 13c-1,-1 -3,-1 -6,-2 -3,0 -6,-1 -11,-1 -2,0 -5,1 -8,1 -3,1 -5,1 -5,2l0 70 -15 0 0 -80c3,-2 8,-3 13,-4 5,-1 11,-2 18,-2zm32 4c3,0 8,-1 13,-2 6,-1 13,-2 20,-2 6,0 10,1 14,2 3,2 7,4 9,7 1,-1 2,-1 4,-2 1,-1 3,-2 6,-3 2,-1 5,-2 8,-3 2,0 6,-1 9,-1 6,0 12,1 16,3 4,2 7,5 9,8 3,4 4,8 5,12 1,5 1,10 1,16l0 47 -15 0 0 -44c0,-5 0,-9 0,-13 -1,-3 -2,-6 -3,-8 -2,-3 -3,-5 -6,-6 -2,-1 -5,-1 -9,-1 -5,0 -9,0 -12,2 -4,1 -6,2 -7,3 1,3 2,6 2,9 0,4 1,7 1,11l0 47 -15 0 0 -44c0,-5 -1,-9 -1,-13 -1,-3 -2,-6 -3,-8 -1,-3 -3,-5 -6,-6 -2,-1 -5,-1 -8,-1 -2,0 -4,0 -5,0 -2,0 -4,0 -5,0 -2,0 -3,0 -5,1 -1,0 -2,0 -2,0l0 71 -15 0 0 -82zm155 82l-15 0 0 -84 15 0 0 84zm-8 -99c-2,0 -5,-1 -6,-3 -2,-2 -3,-4 -3,-7 0,-3 1,-6 3,-7 1,-2 4,-3 6,-3 3,0 5,1 7,3 2,1 3,4 3,7 0,3 -1,5 -3,7 -2,2 -4,3 -7,3zm35 17c3,0 8,-1 13,-2 6,-1 13,-2 20,-2 7,0 13,1 17,3 4,2 8,5 11,8 2,3 4,8 5,12 1,5 2,10 2,16l0 47 -15 0 0 -44c0,-5 -1,-9 -1,-13 -1,-4 -2,-7 -4,-9 -1,-2 -4,-4 -6,-5 -3,-1 -6,-1 -10,-1 -2,0 -4,0 -5,0 -2,0 -4,0 -5,0 -2,0 -3,0 -5,1 -1,0 -2,0 -2,0l0 71 -15 0 0 -82zm146 74c-1,1 -4,2 -7,3 -4,2 -8,2 -13,2 -5,0 -10,-1 -15,-2 -4,-2 -8,-4 -11,-8 -4,-3 -6,-7 -8,-12 -2,-5 -3,-12 -3,-19 0,-6 1,-11 2,-17 2,-5 5,-9 9,-13 3,-4 7,-6 12,-9 5,-2 11,-3 18,-3 7,0 13,1 18,2 5,1 10,2 13,3l0 75c0,13 -3,22 -10,28 -7,6 -17,9 -30,9 -6,0 -11,-1 -15,-1 -5,-1 -9,-2 -13,-4l3 -13c3,2 7,3 11,4 5,0 9,1 14,1 9,0 15,-2 19,-5 4,-4 6,-10 6,-17l0 -4zm0 -63c-1,0 -3,0 -6,-1 -2,0 -6,0 -10,0 -8,0 -15,2 -19,8 -4,5 -7,12 -7,21 0,4 1,9 2,12 2,4 3,6 5,9 2,2 5,4 8,5 2,1 5,1 8,1 4,0 8,0 11,-1 4,-2 6,-3 8,-4l0 -50zm58 53c0,1 0,2 0,2 0,1 0,2 0,3 0,7 -1,13 -3,20 -2,7 -5,13 -8,19l-12 -4c3,-5 4,-11 5,-16 1,-6 2,-11 2,-16 0,-2 0,-3 0,-4 0,-2 -1,-3 -1,-4l17 0zm2 -55c0,3 -1,5 -3,8 -2,2 -5,3 -8,3 -4,0 -6,-1 -8,-3 -2,-3 -3,-5 -3,-8 0,-3 1,-6 3,-8 2,-2 4,-3 8,-3 3,0 6,1 8,3 2,2 3,5 3,8z"/>
  <g>
   <g id="_471015848">
    <path class="fil12" d="M3439 2301c-10,-10 -22,-15 -36,-15 -15,0 -27,5 -37,15 -10,10 -14,22 -14,36 0,10 2,18 6,26 5,8 11,14 19,19 0,9 -1,17 -2,24 -2,7 -4,13 -8,18 -3,6 -7,10 -10,14 -4,4 -9,7 -16,11 -7,3 -13,6 -19,8 -6,2 -13,5 -23,8 -18,5 -32,10 -41,15l0 -132c8,-5 14,-11 18,-19 5,-8 7,-16 7,-26 0,-14 -5,-26 -15,-36 -9,-10 -21,-15 -36,-15 -14,0 -26,5 -36,15 -10,10 -15,22 -15,36 0,10 3,18 7,26 5,8 11,14 19,19l0 218c-8,4 -14,10 -19,18 -4,8 -7,17 -7,26 0,14 5,26 15,36 10,10 22,15 36,15 14,0 27,-5 36,-15 10,-10 15,-22 15,-36 0,-9 -2,-18 -7,-26 -4,-8 -10,-14 -18,-18l0 -7c0,-12 4,-21 11,-27 7,-5 22,-12 45,-19 24,-7 42,-14 54,-21 40,-23 60,-59 60,-110 8,-5 14,-11 19,-19 4,-8 7,-16 7,-26 0,-14 -5,-26 -15,-36zm-189 327c-5,5 -11,7 -18,7 -7,0 -13,-2 -18,-7 -5,-5 -7,-11 -7,-18 0,-7 2,-13 7,-18 5,-5 11,-8 18,-8 7,0 13,3 18,8 5,5 8,11 8,18 0,7 -3,13 -8,18zm0 -307c-5,5 -11,8 -18,8 -7,0 -13,-3 -18,-8 -5,-5 -7,-11 -7,-18 0,-7 2,-13 7,-18 5,-5 11,-7 18,-7 7,0 13,2 18,7 5,5 8,11 8,18 0,7 -3,13 -8,18zm171 35c-5,4 -11,7 -18,7 -7,0 -14,-3 -18,-7 -5,-5 -8,-11 -8,-19 0,-7 3,-13 8,-18 4,-5 11,-7 18,-7 7,0 13,2 18,7 5,5 7,11 7,18 0,8 -2,14 -7,19z"/>
   </g>
   <g id="_471015320">
   </g>
   <g id="_471015224">
   </g>
   <g id="_471015176">
   </g>
   <g id="_471015008">
   </g>
   <g id="_471014984">
   </g>
   <g id="_471014840">
   </g>
   <g id="_548479488">
   </g>
   <g id="_548477016">
   </g>
   <g id="_548476848">
   </g>
   <g id="_548477304">
   </g>
   <g id="_548476464">
   </g>
   <g id="_548476056">
   </g>
   <g id="_548476320">
   </g>
   <g id="_548476224">
   </g>
   <g id="_548476512">
   </g>
  </g>
  <g>
   <g id="_548475888">
    <g>
     <path class="fil12" d="M3936 2533c-1,-2 -3,-3 -6,-3l-153 0 0 -102 51 0c4,0 8,-2 12,-5 3,-4 5,-8 5,-12 0,-4 -2,-8 -4,-11l-86 -102c-3,-4 -7,-6 -13,-6 -5,0 -9,2 -13,6l-85 102c-2,3 -4,7 -4,11 0,4 2,8 5,12 4,3 8,5 12,5l51 0 0 111 0 42 0 3 0 3c0,1 0,2 1,4 0,1 0,2 0,3 1,0 1,1 2,2 1,1 1,1 2,2 1,0 2,0 4,0l255 0c3,0 5,-1 6,-2 2,-2 3,-4 3,-6 0,-2 -1,-4 -2,-6l-43 -51z"/>
     <path class="fil12" d="M4146 2467c-3,-3 -7,-5 -12,-5l-51 0 0 -111 0 -42 0 -3 0 -4c0,0 0,-1 0,-3 0,-1 -1,-2 -1,-3 0,0 -1,-1 -1,-2 -1,-1 -2,-2 -3,-2 -1,0 -2,0 -3,0l-256 0c-2,0 -4,0 -6,2 -2,2 -2,4 -2,6 0,2 0,4 1,5l43 52c2,2 4,3 7,3l153 0 0 102 -51 0c-5,0 -9,2 -12,5 -4,3 -5,7 -5,12 0,4 1,8 4,11l85 102c3,4 8,6 13,6 5,0 9,-2 13,-6l85 -102c3,-3 4,-7 4,-11 0,-5 -2,-9 -5,-12z"/>
    </g>
   </g>
   <g id="_548475600">
   </g>
   <g id="_548475456">
   </g>
   <g id="_548474640">
   </g>
   <g id="_548474904">
   </g>
   <g id="_548474688">
   </g>
   <g id="_548475072">
   </g>
   <g id="_548473920">
   </g>
   <g id="_548474472">
   </g>
   <g id="_548473824">
   </g>
   <g id="_548474136">
   </g>
   <g id="_548473944">
   </g>
   <g id="_548473464">
   </g>
   <g id="_548473728">
   </g>
   <g id="_548473440">
   </g>
   <g id="_548473512">
   </g>
  </g>
  <g>
   <g id="_548472264">
    <g>
     <path class="fil12" d="M1801 2633c13,12 28,19 46,19l322 0c18,0 33,-7 46,-19 13,-13 19,-28 19,-46l-451 0c0,18 6,33 18,46z"/>
     <path class="fil12" d="M1903 2555l178 0c15,0 29,-6 40,-17 11,-11 16,-24 16,-39l0 -9 16 0c27,0 50,-9 69,-28 19,-19 28,-42 28,-68 0,-27 -9,-50 -28,-69 -19,-19 -42,-28 -69,-28l-290 0c-4,0 -8,2 -11,5 -3,3 -5,7 -5,11l0 186c0,15 6,28 17,39 11,11 24,17 39,17zm234 -210l16 0c14,0 25,5 35,14 9,10 14,21 14,35 0,13 -5,25 -14,34 -10,9 -21,14 -35,14l-16 0 0 -97z"/>
    </g>
   </g>
   <g id="_548472960">
   </g>
   <g id="_548472216">
   </g>
   <g id="_548471640">
   </g>
   <g id="_548471448">
   </g>
   <g id="_548471784">
   </g>
   <g id="_548472024">
   </g>
   <g id="_548471808">
   </g>
   <g id="_548471376">
   </g>
   <g id="_548470872">
   </g>
   <g id="_548471064">
   </g>
   <g id="_548470896">
   </g>
   <g id="_548470392">
   </g>
   <g id="_548470488">
   </g>
   <g id="_548470560">
   </g>
   <g id="_548470512">
   </g>
  </g>
  <g>
   <g id="_548469696">
    <g>
     <path class="fil12 str2" d="M2774 2258l-17 -4c-2,-1 -4,-1 -6,0 -2,1 -4,3 -4,5l-100 344c0,2 0,4 1,7 1,2 3,3 5,4l17 4c2,1 4,1 6,-1 2,-1 3,-2 4,-5l99 -343c1,-3 1,-5 0,-7 -1,-2 -3,-3 -5,-4z"/>
     <path class="fil12 str2" d="M2625 2325c0,-2 -1,-4 -3,-6l-13 -13c-2,-2 -4,-3 -6,-3 -3,0 -5,1 -6,3l-124 124c-2,2 -3,4 -3,6 0,2 1,4 3,6l124 124c1,2 3,3 6,3 2,0 4,-1 6,-3l13 -13c2,-2 3,-4 3,-6 0,-3 -1,-5 -3,-7l-104 -104 104 -105c2,-1 3,-4 3,-6z"/>
     <path class="fil12 str2" d="M2954 2430l-124 -124c-2,-2 -4,-3 -6,-3 -2,0 -4,1 -6,3l-13 13c-2,2 -3,4 -3,6 0,2 1,5 3,6l104 105 -104 104c-2,2 -3,4 -3,7 0,2 1,4 3,6l13 13c2,2 4,3 6,3 2,0 4,-1 6,-3l124 -124c2,-2 3,-4 3,-6 0,-2 -1,-4 -3,-6z"/>
    </g>
   </g>
   <g id="_548469888">
   </g>
   <g id="_548469576">
   </g>
   <g id="_548468784">
   </g>
   <g id="_548468496">
   </g>
   <g id="_548469072">
   </g>
   <g id="_548468760">
   </g>
   <g id="_548468712">
   </g>
   <g id="_548468064">
   </g>
   <g id="_548468352">
   </g>
   <g id="_548468040">
   </g>
   <g id="_548468304">
   </g>
   <g id="_548466840">
   </g>
   <g id="_548466960">
   </g>
   <g id="_548467200">
   </g>
   <g id="_548467512">
   </g>
  </g>
  <path class="fil13" d="M1870 2816l2217 0c32,0 59,22 59,48l0 77 -2335 0 0 -77c0,-26 27,-48 59,-48z"/>
  <circle class="fil7" cx="3799" cy="2863" r="41"/>
  <circle class="fil7" cx="3917" cy="2863" r="41"/>
  <circle class="fil7" cx="4031" cy="2863" r="41"/>
  <g>
   <path class="fil14 str3" d="M8054 1945l30 12 -2 7 -37 -16 0 -7 37 -15 2 6 -30 13zm51 -18c0,5 0,9 -1,13 0,4 0,8 -1,11l-5 0c0,-3 -1,-7 -1,-11 0,-4 -1,-8 -1,-13l0 -16 9 0 0 16zm1 38c0,2 0,3 -1,4 -1,1 -3,2 -4,2 -2,0 -4,-1 -5,-2 -1,-1 -1,-2 -1,-4 0,-1 0,-3 1,-4 1,-1 3,-1 5,-1 1,0 3,0 4,1 1,1 1,3 1,4zm9 -23l21 0 0 7 -21 0 0 -7zm26 0l21 0 0 7 -21 0 0 -7zm38 -16l16 0 0 6 -16 0 0 21c0,2 0,4 0,5 0,2 1,3 2,4 0,0 1,1 2,1 1,1 2,1 4,1 2,0 4,0 5,-1 2,-1 3,-1 4,-1l1 6c-1,1 -2,1 -4,2 -2,1 -4,1 -7,1 -3,0 -5,-1 -7,-1 -2,-1 -4,-2 -5,-4 -1,-1 -2,-3 -3,-5 0,-3 0,-5 0,-8l0 -40 8 -1 0 14zm65 22c0,3 -1,6 -2,9 -1,3 -2,6 -4,8 -2,2 -4,3 -7,4 -2,1 -5,2 -8,2 -3,0 -6,-1 -8,-2 -3,-1 -5,-2 -7,-4 -2,-2 -3,-5 -4,-8 -1,-3 -2,-6 -2,-9 0,-4 1,-7 2,-10 1,-3 2,-5 4,-7 2,-2 4,-4 7,-5 2,-1 5,-2 8,-2 3,0 6,1 8,2 3,1 5,3 7,5 2,2 3,4 4,7 1,3 2,6 2,10zm-9 0c0,-5 -1,-9 -3,-12 -2,-3 -5,-5 -9,-5 -4,0 -7,2 -9,5 -3,3 -4,7 -4,12 0,5 1,9 4,12 2,3 5,4 9,4 4,0 7,-1 9,-4 2,-3 3,-7 3,-12zm48 17c-1,1 -2,1 -4,2 -2,1 -4,1 -7,1 -3,0 -5,0 -7,-1 -3,-1 -5,-2 -7,-4 -1,-2 -3,-4 -4,-7 -1,-2 -1,-6 -1,-9 0,-3 0,-6 1,-9 1,-3 2,-5 4,-7 2,-2 4,-4 7,-5 3,-1 6,-1 9,-1 4,0 7,0 10,0 3,1 5,1 7,2l0 39c0,7 -2,12 -6,15 -3,3 -8,5 -16,5 -2,0 -5,0 -7,-1 -3,0 -5,-1 -7,-1l2 -7c1,0 3,1 5,1 3,1 5,1 8,1 4,0 8,-1 10,-3 2,-2 3,-5 3,-9l0 -2zm0 -32c-1,-1 -2,-1 -3,-1 -2,0 -4,0 -6,0 -4,0 -7,1 -10,4 -2,3 -3,6 -3,11 0,2 0,5 1,6 1,2 1,4 3,5 1,1 2,2 3,3 2,0 3,0 5,0 2,0 4,0 6,0 1,-1 3,-2 4,-3l0 -25zm19 15c0,-4 1,-8 2,-10 1,-3 3,-6 4,-8 2,-2 4,-3 7,-4 2,-1 5,-2 7,-2 6,0 11,2 14,6 3,4 5,9 5,17 0,0 0,1 0,1 0,1 0,1 0,2l-31 0c1,4 2,8 4,10 3,3 6,4 11,4 3,0 6,0 7,-1 2,0 4,-1 5,-1l1 6c-1,1 -3,1 -5,2 -3,1 -5,1 -8,1 -4,0 -8,-1 -10,-2 -3,-1 -6,-3 -7,-5 -2,-2 -4,-4 -4,-7 -1,-3 -2,-6 -2,-9zm31 -5c0,-3 -1,-6 -3,-8 -2,-3 -4,-4 -8,-4 -1,0 -3,1 -4,1 -2,1 -3,2 -4,3 -1,1 -2,2 -2,4 -1,1 -1,3 -1,4l22 0zm27 -17l17 0 0 6 -17 0 0 21c0,2 0,4 1,5 0,2 0,3 1,4 1,0 2,1 3,1 1,1 2,1 3,1 3,0 5,0 6,-1 1,-1 2,-1 3,-1l2 6c-1,1 -3,1 -5,2 -2,1 -4,1 -6,1 -3,0 -6,-1 -8,-1 -2,-1 -3,-2 -5,-4 -1,-1 -2,-3 -2,-5 -1,-3 -1,-5 -1,-8l0 -40 8 -1 0 14zm27 44l0 -65 8 -1 0 22c2,0 3,-1 5,-1 2,0 3,0 5,0 3,0 6,0 9,1 2,1 4,3 5,4 2,2 3,4 3,7 1,2 1,5 1,8l0 25 -8 0 0 -23c0,-3 0,-5 0,-7 -1,-2 -1,-4 -2,-5 -1,-1 -2,-2 -4,-3 -1,0 -3,0 -5,0 -1,0 -2,0 -3,0 -1,0 -1,0 -2,0 -1,0 -2,0 -2,1 -1,0 -2,0 -2,0l0 37 -8 0zm47 -22c0,-4 0,-8 1,-10 2,-3 3,-6 5,-8 2,-2 4,-3 6,-4 3,-1 5,-2 8,-2 6,0 10,2 14,6 3,4 4,9 4,17 0,0 0,1 0,1 0,1 0,1 0,2l-30 0c0,4 2,8 4,10 2,3 6,4 11,4 3,0 5,0 7,-1 2,0 3,-1 4,-1l1 6c-1,1 -2,1 -5,2 -2,1 -5,1 -8,1 -4,0 -7,-1 -10,-2 -3,-1 -5,-3 -7,-5 -2,-2 -3,-4 -4,-7 -1,-3 -1,-6 -1,-9zm30 -5c0,-3 -1,-6 -3,-8 -1,-3 -4,-4 -7,-4 -2,0 -4,1 -5,1 -1,1 -3,2 -4,3 0,1 -1,2 -2,4 0,1 -1,3 -1,4l22 0zm36 -18c1,0 2,0 3,0 1,0 2,0 2,0 1,0 2,0 3,1 0,0 1,0 1,0l-1 7c-1,0 -2,-1 -3,-1 -2,0 -3,0 -6,0 -1,0 -3,0 -4,0 -2,0 -2,1 -3,1l0 37 -8 0 0 -43c2,0 4,-1 7,-1 3,-1 6,-1 9,-1zm21 35c0,1 0,1 0,1 0,1 0,1 0,2 0,3 0,7 -1,10 -2,4 -3,7 -5,10l-6 -2c2,-2 2,-5 3,-8 0,-3 1,-6 1,-9 0,0 0,-1 0,-2 0,-1 -1,-1 -1,-2l9 0zm69 10c-1,-4 -3,-9 -5,-14 -2,-5 -3,-11 -5,-17 -1,6 -3,12 -5,17 -1,5 -3,10 -5,14l-7 0c-2,-6 -5,-13 -7,-20 -3,-8 -5,-16 -7,-24l8 0c1,2 1,5 2,8 1,3 2,7 3,10 1,3 2,6 3,9 1,3 1,5 2,7 1,-2 2,-5 3,-8 1,-3 2,-6 3,-9 1,-3 1,-6 2,-9 1,-3 2,-6 2,-8l7 0c0,2 1,5 2,8 0,3 1,6 2,9 1,3 2,6 3,9 1,3 2,6 3,8 0,-2 1,-4 2,-7 1,-3 2,-6 3,-9 1,-3 2,-7 3,-10 0,-3 1,-6 2,-8l8 0c-2,8 -5,16 -7,24 -3,7 -5,14 -8,20l-7 0zm28 -22c0,-4 1,-8 2,-10 1,-3 2,-6 4,-8 2,-2 4,-3 7,-4 2,-1 5,-2 7,-2 6,0 11,2 14,6 3,4 5,9 5,17 0,0 0,1 0,1 0,1 0,1 0,2l-31 0c1,4 2,8 4,10 3,3 6,4 11,4 3,0 5,0 7,-1 2,0 4,-1 5,-1l1 6c-1,1 -3,1 -5,2 -3,1 -6,1 -9,1 -4,0 -7,-1 -10,-2 -2,-1 -5,-3 -7,-5 -1,-2 -3,-4 -4,-7 -1,-3 -1,-6 -1,-9zm30 -5c0,-3 0,-6 -2,-8 -2,-3 -5,-4 -8,-4 -2,0 -3,1 -5,1 -1,1 -2,2 -3,3 -1,1 -2,2 -2,4 -1,1 -1,3 -2,4l22 0zm54 28c-5,0 -9,-1 -11,-3 -2,-2 -3,-6 -3,-10l0 -53 8 -1 0 53c0,1 0,2 1,3 0,1 0,2 1,2 0,1 1,1 2,1 1,1 2,1 3,1l-1 7zm25 -7c2,0 4,0 5,0 1,0 3,0 4,0l0 -14c-1,0 -2,0 -3,0 -1,-1 -3,-1 -5,-1 -1,0 -2,0 -4,1 -1,0 -2,0 -3,1 -1,0 -2,1 -3,2 -1,1 -1,2 -1,4 0,2 1,4 3,6 1,1 4,1 7,1zm-1 -40c4,0 6,1 8,2 3,1 4,2 6,3 1,2 2,3 3,6 0,2 0,4 0,6l0 28c0,0 -1,0 -2,1 -2,0 -3,0 -5,0 -1,0 -3,0 -5,1 -1,0 -3,0 -5,0 -2,0 -5,0 -7,-1 -2,0 -4,-1 -5,-2 -2,-1 -3,-3 -4,-5 -1,-2 -1,-4 -1,-6 0,-3 0,-5 1,-7 1,-1 3,-3 4,-4 2,-1 4,-2 6,-2 3,-1 5,-1 8,-1 0,0 1,0 2,0 1,0 2,0 2,0 1,1 2,1 2,1 1,0 1,0 2,0l0 -2c0,-1 -1,-3 -1,-4 0,-1 -1,-2 -1,-3 -1,-1 -2,-2 -3,-3 -2,0 -3,-1 -5,-1 -3,0 -5,0 -7,1 -2,0 -4,1 -5,1l-1 -7c2,0 3,0 6,-1 2,0 5,-1 7,-1zm66 45c-2,0 -4,1 -7,1 -3,1 -7,1 -10,1 -4,0 -7,-1 -9,-2 -2,-1 -4,-2 -6,-4 -1,-2 -2,-4 -3,-6 0,-3 -1,-6 -1,-9l0 -24 8 0 0 23c0,5 1,9 3,11 2,3 4,4 8,4 1,0 2,0 3,0 1,0 2,0 3,0 0,-1 1,-1 2,-1 0,0 1,0 1,0l0 -37 8 0 0 43zm14 -42c2,-1 4,-1 7,-2 3,0 7,0 11,0 3,0 6,0 8,1 3,1 5,3 6,4 1,2 2,4 3,7 1,2 1,5 1,8l0 25 -8 0 0 -23c0,-3 0,-5 -1,-7 0,-2 -1,-4 -1,-5 -1,-1 -2,-2 -4,-3 -1,0 -3,0 -5,0 -1,0 -2,0 -3,0 -1,0 -2,0 -2,0 -1,0 -2,0 -3,0 0,0 -1,0 -1,0l0 38 -8 0 0 -43zm69 44c-4,0 -7,-1 -10,-2 -3,-1 -5,-3 -7,-5 -2,-2 -3,-4 -4,-7 -1,-3 -1,-6 -1,-9 0,-4 0,-7 1,-10 1,-2 3,-5 5,-7 1,-2 4,-4 6,-5 3,-1 6,-2 9,-2 2,0 4,1 6,1 2,0 4,1 6,2l-2 6c-1,0 -3,-1 -4,-1 -2,0 -3,-1 -5,-1 -5,0 -8,2 -10,5 -3,2 -4,6 -4,12 0,2 0,4 1,6 0,2 1,4 2,5 2,2 3,3 5,4 2,1 4,1 7,1 2,0 4,0 5,-1 2,0 3,-1 4,-1l1 7c0,0 -1,0 -2,0 0,1 -1,1 -2,1 -2,0 -3,1 -4,1 -1,0 -2,0 -3,0zm20 -1l0 -65 8 -1 0 22c2,0 3,-1 5,-1 2,0 3,0 5,0 3,0 6,0 9,1 2,1 4,3 5,4 2,2 3,4 3,7 1,2 1,5 1,8l0 25 -8 0 0 -23c0,-3 0,-5 0,-7 -1,-2 -1,-4 -2,-5 -1,-1 -2,-2 -4,-3 -1,0 -3,0 -5,0 -1,0 -2,0 -3,0 -1,0 -1,0 -2,0 -1,0 -2,0 -2,1 -1,0 -2,0 -2,0l0 37 -8 0zm108 -22c0,3 0,6 -1,9 -1,3 -3,6 -5,8 -1,2 -4,3 -6,4 -3,1 -5,2 -8,2 -3,0 -6,-1 -9,-2 -2,-1 -5,-2 -6,-4 -2,-2 -4,-5 -5,-8 -1,-3 -1,-6 -1,-9 0,-4 0,-7 1,-10 1,-3 3,-5 5,-7 1,-2 4,-4 6,-5 3,-1 6,-2 9,-2 3,0 5,1 8,2 2,1 5,3 6,5 2,2 4,4 5,7 1,3 1,6 1,10zm-8 0c0,-5 -1,-9 -3,-12 -3,-3 -6,-5 -9,-5 -4,0 -7,2 -10,5 -2,3 -3,7 -3,12 0,5 1,9 3,12 3,3 6,4 10,4 3,0 6,-1 9,-4 2,-3 3,-7 3,-12zm55 21c-2,0 -4,1 -7,1 -3,1 -7,1 -10,1 -4,0 -7,-1 -9,-2 -2,-1 -4,-2 -6,-4 -1,-2 -2,-4 -3,-6 0,-3 -1,-6 -1,-9l0 -24 8 0 0 23c0,5 1,9 3,11 1,3 4,4 8,4 1,0 2,0 3,0 1,0 2,0 3,0 0,-1 1,-1 2,-1 0,0 1,0 1,0l0 -37 8 0 0 43zm30 -44c1,0 2,0 3,0 1,0 1,0 2,0 1,0 2,0 3,1 0,0 1,0 1,0l-1 7c-1,0 -2,-1 -3,-1 -2,0 -4,0 -6,0 -1,0 -3,0 -4,0 -2,0 -3,1 -3,1l0 37 -8 0 0 -43c2,0 4,-1 7,-1 3,-1 6,-1 9,-1zm68 23c0,-5 -1,-9 -4,-12 -2,-3 -6,-4 -10,-4 -2,0 -4,0 -6,0 -1,0 -2,0 -3,1l0 28c1,0 3,1 4,2 2,1 4,1 6,1 3,0 5,-1 6,-1 2,-1 3,-2 4,-4 1,-1 2,-3 2,-5 1,-2 1,-4 1,-6zm8 0c0,3 0,6 -1,9 -1,3 -2,5 -4,7 -2,2 -4,4 -6,5 -3,1 -5,2 -9,2 -2,0 -4,0 -6,-1 -2,-1 -4,-1 -5,-2l0 18 -8 0 0 -59c2,-1 4,-1 7,-2 3,0 6,0 10,0 3,0 7,0 9,1 3,1 5,3 7,5 2,2 4,4 5,7 1,3 1,6 1,10zm28 -23c1,0 2,0 2,0 1,0 2,0 3,0 1,0 2,0 2,1 1,0 2,0 2,0l-1 7c-1,0 -2,-1 -3,-1 -2,0 -4,0 -6,0 -2,0 -3,0 -4,0 -2,0 -3,1 -3,1l0 37 -8 0 0 -43c2,0 4,-1 7,-1 3,-1 6,-1 9,-1zm56 23c0,3 0,6 -1,9 -1,3 -3,6 -5,8 -2,2 -4,3 -6,4 -3,1 -6,2 -9,2 -3,0 -5,-1 -8,-2 -3,-1 -5,-2 -7,-4 -1,-2 -3,-5 -4,-8 -1,-3 -1,-6 -1,-9 0,-4 0,-7 1,-10 1,-3 3,-5 4,-7 2,-2 4,-4 7,-5 3,-1 5,-2 8,-2 3,0 6,1 9,2 2,1 4,3 6,5 2,2 4,4 5,7 1,3 1,6 1,10zm-8 0c0,-5 -1,-9 -4,-12 -2,-3 -5,-5 -9,-5 -4,0 -7,2 -9,5 -2,3 -3,7 -3,12 0,5 1,9 3,12 2,3 5,4 9,4 4,0 7,-1 9,-4 3,-3 4,-7 4,-12zm12 38c0,0 -1,0 -2,0 -1,-1 -2,-1 -3,-1l1 -7c1,1 1,1 2,1 1,0 1,0 2,0 3,0 5,-1 6,-3 1,-1 2,-4 2,-7l0 -43 8 0 0 43c0,6 -2,10 -4,13 -3,2 -7,4 -12,4zm12 -68c-2,0 -3,-1 -4,-2 -1,-1 -2,-2 -2,-4 0,-1 1,-2 2,-3 1,-1 2,-2 4,-2 1,0 2,1 3,2 1,1 2,2 2,3 0,2 -1,3 -2,4 -1,1 -2,2 -3,2zm15 30c0,-4 1,-8 2,-10 1,-3 2,-6 4,-8 2,-2 4,-3 7,-4 2,-1 5,-2 7,-2 6,0 11,2 14,6 3,4 5,9 5,17 0,0 0,1 0,1 0,1 0,1 0,2l-31 0c1,4 2,8 4,10 3,3 6,4 11,4 3,0 5,0 7,-1 2,0 4,-1 4,-1l2 6c-1,1 -3,1 -5,2 -3,1 -6,1 -9,1 -4,0 -7,-1 -10,-2 -3,-1 -5,-3 -7,-5 -1,-2 -3,-4 -4,-7 -1,-3 -1,-6 -1,-9zm30 -5c0,-3 0,-6 -2,-8 -2,-3 -5,-4 -8,-4 -2,0 -3,1 -5,1 -1,1 -2,2 -3,3 -1,1 -2,2 -3,4 0,1 0,3 -1,4l22 0zm40 28c-4,0 -7,-1 -10,-2 -2,-1 -5,-3 -7,-5 -1,-2 -3,-4 -4,-7 -1,-3 -1,-6 -1,-9 0,-4 0,-7 1,-10 1,-2 3,-5 5,-7 1,-2 4,-4 6,-5 3,-1 6,-2 9,-2 2,0 4,1 6,1 2,0 4,1 6,2l-2 6c-1,0 -3,-1 -4,-1 -2,0 -3,-1 -5,-1 -5,0 -8,2 -10,5 -3,2 -4,6 -4,12 0,2 0,4 1,6 1,2 1,4 3,5 1,2 2,3 4,4 2,1 4,1 7,1 2,0 4,0 5,-1 2,0 3,-1 4,-1l2 7c-1,0 -2,0 -2,0 -1,1 -2,1 -3,1 -1,0 -3,1 -4,1 -1,0 -2,0 -3,0z"/>
   <path class="fil14 str3" d="M9369 1926l17 0 0 6 -17 0 0 21c0,2 0,4 0,5 1,2 1,3 2,4 0,0 1,1 2,1 1,1 3,1 4,1 2,0 4,0 6,-1 1,-1 2,-1 3,-1l1 6c-1,1 -2,1 -4,2 -2,1 -4,1 -7,1 -3,0 -5,-1 -7,-1 -2,-1 -4,-2 -5,-4 -1,-1 -2,-3 -2,-5 -1,-3 -1,-5 -1,-8l0 -40 8 -1 0 14zm19 16l21 0 0 7 -21 0 0 -7zm26 0l21 0 0 7 -21 0 0 -7zm28 -10l2 -6 37 15 0 7 -37 16 -2 -7 30 -12 -30 -13z"/>
  </g>
  <g style="clip-path:url(#id0)">
   <image x="8396" y="1107" width="717" height="717" xlink:href="Jomweb_Images\Jomweb_ImgID1.png"/>
  </g>
 </g>
</svg>
