<?xml version="1.0" standalone="no"?>
<!DOCTYPE svg PUBLIC "-//W3C//DTD SVG 20010904//EN"
 "http://www.w3.org/TR/2001/REC-SVG-20010904/DTD/svg10.dtd">
<svg version="1.0" xmlns="http://www.w3.org/2000/svg"
 width="1347.000000pt" height="1347.000000pt" viewBox="0 0 1347.000000 1347.000000"
 preserveAspectRatio="xMidYMid meet">
<metadata>
Created by potrace 1.11, written by Peter Selinger 2001-2013
</metadata>
<g transform="translate(0.000000,1347.000000) scale(0.100000,-0.100000)"
fill="#000000" stroke="none">
<path d="M6295 11386 c32 -103 71 -170 116 -202 22 -15 48 -41 58 -58 17 -28
83 -207 78 -212 -1 -1 -67 -5 -147 -8 -196 -8 -221 -14 -316 -71 -98 -59 -260
-82 -399 -56 -33 6 -78 13 -100 16 -22 3 -69 9 -105 14 -69 9 -284 7 -365 -3
-27 -4 -66 -8 -85 -11 -156 -19 -482 -91 -690 -153 -30 -8 -59 -17 -65 -18
-88 -21 -343 -105 -430 -141 -541 -224 -1279 -719 -1662 -1114 -186 -193 -264
-318 -333 -534 -95 -299 -117 -350 -263 -603 l-101 -173 -14 28 c-8 15 -18 30
-21 33 -4 3 -25 34 -48 70 -84 129 -225 257 -358 323 -111 55 -171 71 -265 71
-129 1 -195 -40 -251 -160 -46 -95 -61 -188 -63 -369 -1 -202 10 -324 50 -570
3 -16 7 -43 10 -60 28 -177 119 -575 210 -920 36 -137 67 -257 69 -265 9 -43
60 -227 87 -310 56 -176 118 -326 231 -560 54 -111 55 -174 5 -255 -20 -31
-109 -141 -201 -248 -111 -127 -152 -189 -178 -262 -47 -134 7 -244 173 -352
146 -94 266 -130 307 -92 12 11 21 25 21 32 0 14 37 -49 90 -153 36 -71 62
-150 75 -230 3 -19 7 -46 10 -60 3 -14 7 -41 10 -60 39 -247 101 -391 194
-453 137 -91 389 -78 475 24 45 53 92 164 109 254 2 11 9 19 16 17 10 -2 586
-364 806 -507 206 -133 204 -133 203 -85 -1 14 8 112 17 205 2 22 7 74 10 115
6 65 44 180 59 180 8 0 29 -115 32 -175 4 -102 14 -198 26 -252 10 -49 21 -62
182 -226 94 -96 200 -205 234 -241 35 -37 82 -76 104 -87 46 -24 171 -32 258
-18 30 5 75 11 100 15 25 3 70 9 100 14 30 5 75 12 100 15 25 3 70 10 100 15
57 9 75 12 220 30 141 17 152 18 230 25 70 6 139 23 320 76 168 49 239 54 395
29 39 -6 81 -13 95 -15 14 -2 82 -13 151 -24 522 -86 941 -9 1278 234 173 124
341 319 466 540 16 28 30 51 31 53 1 2 15 -3 31 -11 42 -22 146 -55 216 -68
34 -6 172 -13 307 -14 237 -2 304 -6 420 -25 30 -6 73 -12 95 -16 22 -3 43 -8
46 -10 3 -2 21 -6 40 -9 70 -12 312 -86 453 -138 156 -58 215 -91 237 -135 7
-15 15 -29 16 -31 2 -3 153 150 153 156 0 1 -11 8 -24 15 -13 7 -69 56 -123
108 -117 112 -153 144 -183 160 -12 6 -18 15 -14 20 5 4 65 19 134 34 150 32
158 39 195 161 25 82 27 85 53 80 15 -2 52 -7 82 -10 71 -7 191 -40 238 -64
20 -11 70 -45 111 -76 41 -31 90 -63 110 -71 40 -17 143 -40 214 -49 l49 -6
-88 168 c-48 92 -92 176 -98 185 -6 9 -8 20 -4 23 8 8 58 -16 58 -29 0 -9 561
-246 582 -246 18 0 -32 115 -84 190 -105 153 -273 234 -649 316 -41 8 -85 18
-99 20 -14 2 -37 8 -51 12 l-26 7 84 170 c46 94 149 319 229 500 81 182 157
351 170 378 13 26 22 47 20 47 -5 0 207 425 250 500 141 250 326 483 511 642
93 80 118 95 175 103 73 11 196 112 304 250 76 98 158 175 213 202 74 37 166
37 269 0 48 -17 72 -22 73 -14 0 7 1 87 1 180 0 141 2 167 15 167 19 0 157
-46 192 -64 15 -8 51 -38 81 -67 63 -59 158 -134 165 -128 5 6 -7 54 -46 184
-19 61 -33 119 -31 130 3 24 10 28 151 102 58 31 108 59 111 62 3 3 16 12 30
19 14 7 35 21 47 30 l23 17 -35 132 c-61 236 -134 425 -190 492 -39 45 -79 61
-132 51 -28 -5 -48 -3 -57 4 -22 17 -36 84 -42 208 -4 62 -7 114 -9 116 -2 2
-29 -14 -61 -34 -32 -20 -90 -52 -128 -70 -164 -75 -245 -57 -494 109 -74 49
-136 87 -138 84 -2 -2 -4 -93 -5 -203 -1 -238 3 -254 100 -399 37 -55 71 -106
75 -113 8 -13 -256 -11 -599 4 -531 24 -625 0 -887 -229 -37 -32 -71 -57 -76
-55 -7 2 -435 278 -527 338 -137 91 -324 238 -417 329 l-67 66 14 75 c22 117
58 224 170 510 165 420 196 528 197 680 1 153 -62 256 -194 318 -92 43 -182
61 -350 71 -17 1 -18 23 -18 322 l0 320 -28 -20 c-65 -46 -129 -112 -152 -155
-39 -77 -171 -199 -192 -178 -6 6 -59 81 -117 166 -164 239 -188 272 -285 406
-202 278 -346 455 -455 559 l-56 53 -14 -48 c-8 -27 -41 -131 -73 -232 -32
-101 -60 -196 -63 -210 -5 -25 -20 -113 -29 -172 -3 -14 -5 -36 -6 -50 -1 -25
-1 -25 -32 10 -17 19 -61 69 -98 110 -171 191 -287 343 -360 475 -12 22 -31
57 -43 78 l-21 37 -507 0 -507 0 23 -74z m-1560 -1070 c122 -13 209 -26 350
-52 187 -34 528 -145 721 -234 74 -34 286 -140 293 -146 3 -3 -37 -55 -85
-110 -11 -12 -44 -50 -74 -84 -30 -35 -59 -68 -65 -74 -5 -6 -37 -43 -69 -81
-33 -39 -66 -75 -73 -81 -22 -18 -2 -20 169 -19 87 1 162 -1 167 -5 6 -3 7
-21 1 -44 -5 -25 -4 -54 4 -86 15 -56 23 -55 -121 -8 -184 59 -356 68 -456 24
-127 -56 -217 -186 -274 -395 -9 -35 -23 -65 -30 -68 -7 -3 -13 -13 -13 -23 0
-36 -17 -29 -29 13 -17 57 -73 159 -126 226 -83 108 -184 184 -307 231 -215
83 -403 17 -506 -179 -17 -31 -36 -75 -43 -98 -7 -24 -13 -43 -15 -43 -1 0
-38 16 -81 36 -182 84 -248 105 -354 109 -104 5 -154 -11 -212 -67 -71 -71
-127 -231 -162 -465 -9 -59 -29 -196 -45 -303 -40 -270 -41 -273 -45 -290 -2
-8 -7 -31 -10 -50 -3 -19 -15 -84 -25 -145 -11 -60 -22 -126 -24 -145 -2 -19
-9 -64 -15 -100 -5 -36 -12 -83 -15 -105 -4 -22 -8 -51 -11 -65 -2 -14 -6 -36
-9 -50 -20 -123 -45 -150 -166 -179 -49 -11 -95 -21 -102 -21 -10 0 -14 17
-14 63 -3 221 -51 512 -148 902 -51 203 -127 499 -129 501 -1 1 -29 15 -62 32
-116 57 -145 63 -323 63 l-164 -1 86 85 c70 67 85 88 78 101 -23 40 10 109
158 333 108 164 138 201 259 321 75 75 156 151 179 170 24 19 54 43 65 54 35
29 198 142 268 184 201 122 400 209 644 281 133 39 347 76 502 87 54 3 99 7
100 8 5 5 300 -3 358 -8z m4837 -605 c15 -1 17 -9 13 -63 -23 -283 -67 -440
-247 -893 -127 -318 -187 -486 -203 -575 -6 -35 -6 -35 42 -49 105 -31 207
-92 418 -254 135 -104 240 -168 426 -260 154 -76 208 -121 245 -202 24 -51 54
-195 54 -256 0 -25 -1 -26 -52 -18 -210 28 -354 95 -698 324 -287 190 -396
247 -569 299 -50 15 -53 15 -48 -2 57 -176 99 -345 124 -499 4 -26 8 -102 8
-168 0 -100 -4 -127 -20 -160 -17 -34 -25 -40 -56 -43 -20 -2 -83 8 -140 22
-57 13 -123 27 -147 30 -56 7 -59 9 -66 48 -3 18 -8 42 -10 53 -20 93 -89 418
-104 490 -11 50 -45 209 -76 355 -31 146 -61 283 -66 305 -10 39 -114 526
-125 582 -3 15 -7 40 -10 55 -3 15 -9 38 -14 51 -6 14 -8 27 -5 30 2 2 0 15
-5 29 -5 14 -12 38 -14 54 -5 24 -35 171 -53 249 -2 11 -6 31 -9 45 -2 14 -15
73 -28 132 l-24 107 121 -4 c67 -3 137 -7 156 -11 48 -8 94 -38 109 -71 36
-76 134 -396 148 -482 13 -78 21 -105 42 -128 25 -28 160 -138 162 -131 0 1 2
13 5 26 17 93 110 340 222 587 57 129 106 259 123 330 6 28 17 55 24 60 9 8
222 11 347 6z m-2097 -286 c297 -47 428 -173 530 -510 20 -66 43 -141 50 -166
15 -49 141 -548 149 -589 7 -38 71 -307 82 -345 2 -5 6 -23 9 -40 3 -16 29
-120 56 -230 28 -110 52 -207 54 -215 3 -8 12 -42 21 -75 9 -33 18 -68 20 -78
7 -38 105 -356 132 -432 24 -66 135 -333 187 -450 7 -16 38 -91 70 -165 31
-74 67 -159 81 -188 13 -29 24 -55 24 -58 0 -3 8 -24 19 -47 10 -23 29 -67 42
-97 12 -30 25 -59 29 -63 4 -5 17 34 30 85 95 393 276 741 494 951 99 96 202
126 351 103 46 -6 62 -10 163 -32 l73 -16 -6 -52 c-11 -97 -27 -158 -46 -177
-18 -18 -20 -18 -86 7 -54 21 -79 25 -121 21 -128 -13 -283 -163 -454 -437
-126 -203 -164 -313 -155 -450 7 -102 25 -163 85 -292 l45 -99 36 5 c20 3 63
8 95 11 90 9 148 25 180 52 24 20 146 193 146 207 0 3 -16 0 -36 -6 -20 -5
-44 -11 -53 -14 -9 -2 -52 -13 -96 -26 -79 -21 -82 -21 -135 -4 -74 24 -130
48 -130 57 0 23 108 130 184 181 100 69 274 135 397 153 24 3 51 8 59 10 8 2
40 7 70 10 30 3 67 8 82 11 24 5 28 2 37 -33 79 -299 72 -333 -91 -488 -346
-331 -574 -390 -803 -208 -27 22 -93 80 -145 129 -98 92 -160 142 -160 127 0
-4 12 -53 26 -108 41 -160 46 -196 59 -362 5 -75 5 -76 -101 -33 -159 64 -260
150 -422 365 -138 183 -182 234 -249 291 l-55 47 6 -59 c16 -135 37 -224 86
-369 30 -86 90 -291 90 -305 0 -9 -125 8 -185 26 -114 33 -180 96 -214 208
-11 34 -31 125 -45 202 -34 184 -31 169 -66 312 -17 69 -57 200 -89 291 -93
264 -131 406 -131 487 l0 33 53 -6 c83 -8 180 -40 228 -75 52 -37 51 -36 136
-163 64 -95 215 -259 293 -318 82 -62 104 -76 108 -72 6 6 4 87 -4 185 -7 86
-26 169 -73 315 -21 66 -44 153 -51 193 -17 101 -21 103 -225 118 -49 3 -93 9
-96 13 -3 3 -11 47 -17 96 -7 50 -14 101 -17 115 -3 14 -8 41 -11 60 -3 19
-10 55 -16 80 -5 25 -12 56 -14 70 -8 42 -84 370 -106 455 -11 44 -21 87 -23
95 -17 78 -73 291 -77 295 -9 9 -129 -422 -141 -510 -10 -68 -87 -327 -122
-410 -7 -16 -31 -77 -54 -133 -23 -57 -65 -151 -92 -208 l-50 -104 -42 5
c-256 32 -439 114 -739 332 l-48 35 -1 -164 c-1 -193 0 -192 -42 -282 -55
-121 -45 -113 -118 -87 -135 48 -254 127 -366 242 -91 94 -149 170 -287 378
-139 209 -218 315 -300 401 -53 57 -161 150 -173 150 -7 0 5 -127 22 -230 14
-79 28 -137 91 -380 52 -199 63 -295 44 -386 -18 -87 -41 -128 -87 -152 -98
-53 -296 101 -388 300 -59 129 -139 420 -178 653 -2 11 -7 31 -10 45 -4 14 -8
39 -11 55 -2 17 -16 89 -31 160 -15 72 -29 143 -32 159 -3 17 -22 100 -43 185
-44 178 -89 307 -153 442 -141 298 -166 404 -113 494 29 49 106 95 160 95 53
0 126 -32 194 -84 121 -92 335 -353 584 -711 159 -228 283 -398 375 -515 44
-55 176 -191 197 -202 17 -9 18 -7 11 18 -4 16 -9 38 -11 49 -17 92 -141 505
-249 830 -141 426 -161 599 -75 642 48 24 157 10 281 -36 51 -20 58 -26 96
-93 82 -145 141 -322 204 -613 11 -49 21 -97 23 -105 68 -280 109 -417 198
-655 57 -154 86 -225 92 -225 8 0 -7 780 -19 970 -1 30 -6 111 -10 180 -3 69
-8 141 -10 160 -1 19 -6 73 -10 120 -3 47 -8 100 -11 118 -2 17 -6 47 -8 65
-3 17 -8 53 -11 78 l-6 46 53 -4 c77 -6 194 -30 226 -47 15 -8 57 -43 94 -79
37 -36 91 -84 121 -106 l54 -41 -2 -117 c-2 -65 -6 -215 -11 -333 -14 -397 -9
-796 12 -940 22 -152 76 -350 95 -350 26 0 99 99 142 192 73 157 148 501 172
793 4 44 9 88 11 98 3 17 8 89 19 271 12 199 16 325 20 661 2 198 5 363 5 366
0 6 34 4 95 -6z m-3675 -600 c231 -137 335 -236 402 -385 22 -49 69 -211 82
-280 22 -127 84 -399 163 -715 52 -209 96 -387 98 -395 2 -8 15 -62 28 -120
26 -107 81 -383 92 -455 3 -23 7 -51 10 -64 9 -47 26 -224 29 -302 l4 -80 -32
7 c-68 14 -223 71 -262 96 -23 15 -57 46 -76 70 -66 82 -87 182 -92 439 -2 71
-5 131 -7 133 -3 2 -531 -158 -616 -188 -22 -7 -23 -13 -24 -99 -1 -136 -8
-212 -30 -307 -11 -47 -28 -119 -38 -160 l-17 -75 -50 1 c-50 1 -154 13 -165
20 -3 2 -20 6 -38 9 -61 10 -123 46 -136 79 -16 38 -10 55 55 150 48 71 58 99
42 122 -11 17 -65 43 -103 49 -19 3 -47 8 -64 10 -69 12 -185 14 -185 5 0 -20
40 -158 89 -305 27 -82 52 -166 55 -185 3 -19 10 -57 15 -85 5 -27 12 -94 16
-149 l7 -98 -43 7 c-81 12 -184 57 -243 105 -66 55 -111 99 -143 144 -21 28
-40 53 -43 56 -22 20 -103 172 -144 271 -57 138 -129 380 -150 504 -3 17 -12
68 -20 115 -8 47 -17 110 -20 140 -4 30 -9 75 -11 100 -3 25 -7 81 -10 125 -2
44 -8 81 -13 83 -5 1 -43 -31 -85 -72 -64 -63 -84 -91 -125 -178 -64 -132
-103 -175 -218 -232 -90 -45 -112 -38 -229 79 -33 33 -84 77 -113 99 l-53 39
6 -114 c6 -111 11 -176 20 -231 8 -43 15 -85 20 -118 11 -63 66 -263 118 -430
67 -211 93 -301 105 -358 l10 -42 -82 5 c-44 3 -94 8 -111 11 -16 3 -43 7 -58
10 -51 8 -145 51 -187 85 -96 77 -160 227 -215 503 -19 94 -37 189 -40 211 -3
23 -7 52 -10 65 -3 13 -7 42 -10 65 -5 33 -41 254 -60 367 -3 14 -21 102 -40
195 -54 256 -81 397 -100 518 -9 61 -19 121 -21 135 -10 53 -12 338 -3 400 6
36 11 73 12 83 1 9 4 17 7 17 3 0 53 -29 111 -63 288 -174 466 -354 589 -597
47 -95 120 -294 120 -331 0 -17 8 -19 95 -19 l95 0 1 83 c3 501 72 778 235
941 92 93 203 138 278 114 70 -24 124 -105 157 -238 11 -45 18 -84 15 -87 -2
-2 4 -33 14 -67 16 -55 38 -181 55 -301 10 -73 17 -108 67 -345 78 -366 100
-504 102 -637 0 -13 6 -23 13 -23 8 0 138 39 291 86 152 48 286 89 297 92 33
8 42 20 43 54 1 45 13 197 17 218 2 9 6 41 10 71 3 30 8 65 10 79 2 14 7 43 9
65 3 22 7 49 10 60 2 11 6 41 10 66 7 48 8 56 25 154 16 93 18 104 36 200 17
91 22 114 29 150 9 40 37 181 42 205 2 14 7 31 10 39 2 8 7 30 10 50 3 20 27
122 54 226 49 192 85 305 99 305 4 0 49 -25 101 -55z m-1665 -2302 c5 -32 9
-67 11 -78 10 -93 44 -210 123 -430 96 -266 126 -409 135 -648 l3 -63 -116
116 c-143 142 -168 154 -333 151 -107 -1 -109 -1 -98 19 28 53 39 118 36 215
-3 118 -11 143 -107 352 -89 196 -63 277 116 355 48 22 187 65 216 67 4 1 10
-25 14 -56z m3700 -11 c90 -53 101 -70 134 -194 29 -109 31 -105 -41 -107
-198 -6 -260 -25 -383 -111 -44 -31 -85 -59 -92 -63 -7 -4 -26 -1 -42 7 -66
35 -184 67 -260 71 -31 2 -63 6 -72 10 -15 6 -68 102 -83 153 -7 20 -5 21 16
13 13 -5 38 -17 56 -26 93 -47 131 -54 304 -53 l168 2 25 38 c14 21 43 61 64
89 21 28 43 67 49 87 6 21 18 63 27 94 14 50 19 57 33 48 9 -5 53 -31 97 -58z
m1151 -189 c26 -75 27 -86 25 -272 -1 -107 -4 -197 -6 -199 -3 -3 -13 2 -22
10 -10 9 -46 30 -80 47 -34 17 -66 39 -72 48 -9 19 -37 124 -46 176 -3 18 -13
59 -21 91 -9 33 -16 84 -17 114 l-2 56 75 38 c41 22 79 43 85 49 12 12 45 -52
81 -158z m-2925 69 c0 -4 2 -14 4 -22 1 -8 5 -42 9 -75 7 -72 15 -107 52 -247
15 -59 26 -109 23 -112 -2 -3 -27 -7 -54 -10 -28 -2 -75 -15 -105 -29 -30 -13
-82 -27 -115 -31 -127 -14 -175 -18 -175 -13 0 4 28 70 75 171 33 74 46 113
70 224 14 64 28 124 31 133 4 13 21 16 94 17 50 1 90 -2 91 -6z m3438 -81
c124 -80 163 -157 226 -445 38 -174 97 -398 121 -459 7 -20 18 -54 23 -75 5
-20 25 -89 44 -152 19 -63 39 -131 43 -150 4 -19 8 -37 9 -40 25 -106 39 -185
50 -284 7 -57 7 -58 -16 -51 -159 45 -234 77 -250 107 -5 10 -6 33 -1 55 20
86 -20 158 -140 256 -38 31 -48 35 -60 25 -7 -7 -49 -44 -92 -83 -135 -119
-163 -185 -168 -397 -1 -33 -7 -58 -12 -58 -21 0 -136 39 -175 59 -44 23 -56
47 -46 90 10 45 -4 97 -34 128 -47 48 -272 258 -280 261 -5 1 -20 -35 -36 -80
-77 -231 -184 -395 -326 -503 -86 -64 -175 -103 -314 -136 -66 -16 -158 -38
-205 -49 -53 -13 -130 -43 -204 -80 -66 -33 -121 -59 -122 -57 -1 1 -18 34
-38 74 -30 61 -36 85 -42 165 -8 117 -7 112 -18 119 -8 7 -111 4 -230 -6 -74
-6 -141 -30 -167 -61 -32 -37 -48 -122 -53 -292 -2 -45 -5 -84 -7 -87 -3 -2
-57 31 -120 74 -111 76 -114 79 -133 135 -15 44 -23 55 -35 50 -153 -66 -257
-85 -486 -89 -104 -2 -200 -6 -212 -9 -140 -32 -200 -165 -204 -455 -1 -39 -4
-73 -8 -76 -11 -6 -203 110 -238 145 -29 29 -33 39 -33 87 0 52 -2 55 -57 111
-73 72 -113 105 -121 98 -6 -6 -4 -102 3 -126 2 -8 7 -42 10 -75 4 -33 19 -99
35 -147 15 -49 27 -88 26 -89 0 -1 -58 -2 -127 -3 l-127 -3 -21 76 c-12 42
-36 124 -53 182 l-30 106 -37 -4 c-235 -26 -288 -49 -311 -133 -9 -32 -17
-154 -20 -300 l0 -25 -135 0 c-152 -1 -140 -7 -149 85 -3 30 -9 82 -12 115 -7
69 -10 76 -29 69 -34 -13 -154 83 -208 166 l-16 25 77 39 c160 82 221 131 266
216 29 55 63 163 72 228 3 26 8 56 10 67 2 11 6 52 10 90 3 39 7 86 9 105 3
19 7 148 11 285 3 138 8 253 10 257 6 10 123 -20 183 -48 144 -65 251 -200
330 -415 34 -92 67 -237 85 -370 4 -25 9 -57 11 -70 5 -31 12 -103 21 -204 4
-44 8 -82 11 -85 2 -2 32 25 66 61 123 128 126 224 20 574 -107 355 -185 640
-177 648 8 7 149 -48 199 -78 26 -15 58 -44 73 -65 15 -22 32 -39 37 -40 16 0
286 138 325 167 19 14 65 56 102 93 68 69 77 73 193 95 17 4 104 9 194 12
l164 6 -7 -94 c-13 -182 -59 -348 -130 -464 -17 -27 -75 -108 -129 -180 -97
-128 -151 -223 -181 -319 -9 -27 -16 -50 -16 -50 0 -3 258 4 320 8 62 5 197
29 285 52 11 3 30 7 42 10 79 16 95 28 119 88 74 182 173 559 199 755 3 20 6
45 9 56 8 42 22 153 32 245 3 36 7 67 9 70 2 3 63 5 137 5 l133 0 18 -60 c35
-114 109 -340 122 -370 37 -85 146 -398 160 -460 13 -57 37 -162 41 -180 10
-49 25 -166 29 -237 1 -32 5 -62 8 -64 10 -10 208 107 248 146 56 54 55 78 -7
263 -25 72 -56 177 -69 232 -21 87 -29 130 -50 265 -3 23 -7 53 -20 180 -2 25
-7 100 -10 165 l-6 120 67 23 c147 51 338 147 384 194 45 44 65 49 223 55
l155 5 11 -53 c5 -30 15 -83 22 -119 15 -88 58 -174 120 -240 28 -30 57 -66
64 -80 36 -70 54 -204 59 -432 0 -42 4 -79 8 -83 14 -14 126 52 183 110 123
123 208 362 240 670 3 33 8 74 10 91 3 18 7 90 11 160 3 71 8 154 9 184 2 30
3 58 4 62 2 12 160 -49 210 -81z m-5433 -1076 l62 -37 -26 -77 c-22 -69 -29
-80 -57 -90 -62 -22 -221 -207 -272 -316 -24 -52 -28 -72 -27 -150 1 -80 8
-113 62 -295 56 -190 96 -355 108 -456 3 -23 7 -51 9 -62 3 -17 13 -156 19
-275 1 -28 -14 -26 -118 15 -111 44 -182 122 -201 219 -2 11 -7 28 -9 37 -3 9
-8 33 -10 52 -43 335 -44 345 -51 379 -2 13 -7 42 -9 65 -4 34 -20 118 -30
161 -1 6 -8 40 -16 78 -16 77 -17 77 -106 47 -72 -24 -100 -38 -140 -67 -37
-27 -90 -50 -171 -73 l-61 -18 5 36 c17 119 61 243 123 347 40 68 164 198 230
242 79 53 411 226 495 259 76 30 113 26 191 -21z m2429 -1185 c149 -33 296
-168 359 -330 17 -41 31 -77 32 -78 1 -2 44 10 96 27 51 17 147 40 212 51 108
18 165 25 306 36 71 5 508 5 580 -1 36 -3 94 -7 130 -10 65 -5 196 -21 241
-30 13 -3 44 -7 69 -10 25 -3 61 -8 80 -11 46 -7 148 -6 172 2 13 4 33 -5 61
-28 23 -19 53 -41 67 -51 14 -9 44 -30 67 -46 l42 -30 50 37 c27 21 79 66 116
100 68 63 112 88 209 116 30 9 62 19 70 22 19 7 10 -30 -24 -96 -114 -224
-374 -403 -775 -533 -166 -54 -407 -107 -601 -133 -33 -4 -61 -9 -64 -9 -3 -1
-41 -5 -85 -9 -44 -4 -91 -9 -104 -11 -113 -18 -568 -25 -761 -12 -156 11
-309 25 -350 32 -8 1 -35 6 -60 10 -25 4 -52 9 -60 10 -8 1 -35 6 -60 10 -104
16 -226 46 -365 89 -248 77 -430 174 -562 299 -40 39 -72 72 -70 74 3 2 81 4
175 4 322 1 355 30 369 334 3 66 7 122 9 124 4 4 102 25 219 47 16 3 30 6 32
7 8 8 138 6 178 -3z"/>
<path d="M6488 7228 c-42 -64 -46 -154 -12 -268 21 -71 31 -53 38 70 3 52 8
115 11 140 4 31 2 51 -8 64 -13 17 -14 17 -29 -6z"/>
<path d="M8584 5835 c-12 -46 -9 -195 4 -195 8 0 32 58 32 79 0 6 10 25 22 41
21 29 21 31 5 65 -20 42 -53 48 -63 10z"/>
<path d="M3851 7777 c-61 -211 -62 -212 -64 -425 -2 -111 0 -206 3 -211 3 -4
65 -7 137 -7 134 1 136 1 135 36 0 29 -15 217 -18 238 -19 112 -27 147 -50
218 -26 79 -100 234 -113 234 -3 0 -17 -37 -30 -83z"/>
<path d="M2787 6573 c-11 -24 -14 -83 -8 -170 2 -38 18 -26 31 25 8 26 22 58
32 71 23 30 23 42 -3 75 -26 33 -35 33 -52 -1z"/>
<path d="M6266 5819 c-204 -58 -242 -111 -263 -358 -6 -73 -6 -74 14 -60 78
55 168 159 253 294 35 55 70 110 78 123 18 28 12 28 -82 1z"/>
<path d="M7520 5634 c-19 -13 -58 -34 -87 -46 -66 -27 -66 -23 -54 -279 1 -14
15 -16 91 -17 l90 0 1 37 c1 81 -1 324 -3 327 -2 1 -19 -9 -38 -22z"/>
<path d="M6545 5449 c-276 -107 -396 -255 -440 -544 -4 -22 -9 -89 -12 -149
l-6 -109 64 44 c96 67 240 214 301 309 75 116 146 292 181 448 6 28 -17 28
-88 1z"/>
<path d="M3988 5298 c-45 -57 -141 -164 -213 -238 -73 -74 -137 -148 -143
-165 -6 -16 -14 -61 -17 -100 -3 -38 -8 -85 -11 -102 -2 -22 0 -33 9 -33 6 0
51 29 98 64 65 48 95 78 120 121 91 153 214 323 301 419 10 11 18 23 18 27 0
13 -63 109 -71 109 -4 0 -45 -46 -91 -102z"/>
<path d="M5077 5193 c-3 -7 -2 -335 2 -355 0 -4 42 -7 91 -6 l90 2 0 183 0
183 -89 0 c-50 0 -92 -3 -94 -7z"/>
<path d="M2809 4832 l-36 -3 1 -227 1 -227 88 -3 c105 -3 102 -11 51 150 -33
107 -42 156 -47 255 -3 51 -11 59 -58 55z"/>
</g>
</svg>
